<?xml version="1.0" encoding="utf-8" ?>
<svg xmlns="http://www.w3.org/2000/svg" xmlns:ev="http://www.w3.org/2001/xml-events" xmlns:xlink="http://www.w3.org/1999/xlink" baseProfile="full" height="490" version="1.1" width="390">
  <defs>
    <style type="text/css"><![CDATA[
	.node {
		fill: #ffb86c;
		stroke: white;
		stroke-width: 2;
	}
	.edge {
		stroke: white;
		stroke-width: 2;
	}
	]]></style>
  </defs>
  <line class="edge" x1="45" x2="345" y1="145" y2="345"/>
  <line class="edge" x1="45" x2="345" y1="345" y2="145"/>
  <line class="edge" x1="45" x2="345" y1="45" y2="245"/>
  <line class="edge" x1="45" x2="345" y1="245" y2="445"/>
  <line class="edge" x1="45" x2="345" y1="445" y2="45"/>
  <line class="edge" x1="45" x2="345" y1="45" y2="445"/>
  <line class="edge" x1="45" x2="345" y1="445" y2="145"/>
  <line class="edge" x1="45" x2="345" y1="345" y2="245"/>
  <line class="edge" x1="45" x2="345" y1="445" y2="345"/>
  <line class="edge" x1="45" x2="345" y1="245" y2="145"/>
  <circle class="node" cx="45" cy="45" r="40"/>
  <circle class="node" cx="45" cy="245" r="40"/>
  <circle class="node" cx="45" cy="345" r="40"/>
  <circle class="node" cx="45" cy="445" r="40"/>
  <circle class="node" cx="45" cy="145" r="40"/>
  <circle class="node" cx="345" cy="45" r="40"/>
  <circle class="node" cx="345" cy="145" r="40"/>
  <circle class="node" cx="345" cy="245" r="40"/>
  <circle class="node" cx="345" cy="345" r="40"/>
  <circle class="node" cx="345" cy="445" r="40"/>
</svg>
