<?xml version="1.0" encoding="utf-8" ?>
<svg xmlns="http://www.w3.org/2000/svg" xmlns:ev="http://www.w3.org/2001/xml-events" xmlns:xlink="http://www.w3.org/1999/xlink" baseProfile="full" height="390" version="1.1" width="540">
  <defs>
    <style type="text/css"><![CDATA[
	.node {
		fill: #ffb86c;
		stroke: white;
		stroke-width: 2;
	}
	.edge {
		stroke: white;
		stroke-width: 2;
	}
	]]></style>
  </defs>
  <line class="edge" x1="195" x2="270" y1="145" y2="245"/>
  <line class="edge" x1="345" x2="420" y1="145" y2="245"/>
  <line class="edge" x1="195" x2="345" y1="145" y2="145"/>
  <line class="edge" x1="420" x2="345" y1="245" y2="345"/>
  <line class="edge" x1="120" x2="45" y1="245" y2="345"/>
  <line class="edge" x1="270" x2="195" y1="245" y2="345"/>
  <line class="edge" x1="120" x2="195" y1="245" y2="345"/>
  <line class="edge" x1="120" x2="270" y1="245" y2="245"/>
  <line class="edge" x1="45" x2="195" y1="345" y2="345"/>
  <line class="edge" x1="420" x2="495" y1="245" y2="345"/>
  <line class="edge" x1="270" x2="345" y1="245" y2="345"/>
  <line class="edge" x1="195" x2="120" y1="145" y2="245"/>
  <line class="edge" x1="270" x2="195" y1="45" y2="145"/>
  <line class="edge" x1="195" x2="345" y1="345" y2="345"/>
  <line class="edge" x1="270" x2="420" y1="245" y2="245"/>
  <line class="edge" x1="345" x2="270" y1="145" y2="245"/>
  <line class="edge" x1="270" x2="345" y1="45" y2="145"/>
  <line class="edge" x1="345" x2="495" y1="345" y2="345"/>
  <circle class="node" cx="45" cy="345" r="40"/>
  <circle class="node" cx="345" cy="345" r="40"/>
  <circle class="node" cx="495" cy="345" r="40"/>
  <circle class="node" cx="195" cy="345" r="40"/>
  <circle class="node" cx="120" cy="245" r="40"/>
  <circle class="node" cx="270" cy="245" r="40"/>
  <circle class="node" cx="420" cy="245" r="40"/>
  <circle class="node" cx="195" cy="145" r="40"/>
  <circle class="node" cx="345" cy="145" r="40"/>
  <circle class="node" cx="270" cy="45" r="40"/>
</svg>
