<?xml version="1.0" encoding="utf-8" ?>
<svg xmlns="http://www.w3.org/2000/svg" xmlns:ev="http://www.w3.org/2001/xml-events" xmlns:xlink="http://www.w3.org/1999/xlink" baseProfile="full" height="479.97116487272945" version="1.1" width="470.1937735804838">
  <defs>
    <style type="text/css"><![CDATA[
	.node {
		fill: #ffb86c;
		stroke: white;
		stroke-width: 2;
	}
	.edge {
		stroke: white;
		stroke-width: 2;
	}
	]]></style>
  </defs>
  <line class="edge" x1="180.6895867892209" x2="180.6895867892209" y1="45.0" y2="45.0"/>
  <line class="edge" x1="349.8917339522305" x2="349.8917339522305" y1="83.61928594275875" y2="83.61928594275875"/>
  <line class="edge" x1="349.89173395223054" x2="180.6895867892209" y1="396.35187892997067" y2="45.0"/>
  <line class="edge" x1="349.89173395223054" x2="45.0" y1="396.35187892997067" y2="326.76233025987636"/>
  <line class="edge" x1="180.68958678922095" x2="349.8917339522305" y1="434.97116487272945" y2="83.61928594275875"/>
  <line class="edge" x1="45.0" x2="349.8917339522305" y1="153.20883461285314" y2="83.61928594275875"/>
  <line class="edge" x1="425.1937735804838" x2="349.8917339522305" y1="239.98558243636472" y2="83.61928594275875"/>
  <line class="edge" x1="349.89173395223054" x2="349.8917339522305" y1="396.35187892997067" y2="83.61928594275875"/>
  <line class="edge" x1="180.68958678922095" x2="180.6895867892209" y1="434.97116487272945" y2="45.0"/>
  <line class="edge" x1="45.0" x2="349.8917339522305" y1="326.76233025987636" y2="83.61928594275875"/>
  <line class="edge" x1="45.0" x2="180.6895867892209" y1="326.76233025987636" y2="45.0"/>
  <line class="edge" x1="45.0" x2="180.6895867892209" y1="153.20883461285314" y2="45.0"/>
  <line class="edge" x1="180.6895867892209" x2="349.8917339522305" y1="45.0" y2="83.61928594275875"/>
  <line class="edge" x1="425.1937735804838" x2="180.6895867892209" y1="239.98558243636472" y2="45.0"/>
  <line class="edge" x1="425.1937735804838" x2="349.89173395223054" y1="239.98558243636472" y2="396.35187892997067"/>
  <line class="edge" x1="425.1937735804838" x2="425.1937735804838" y1="239.98558243636472" y2="239.98558243636472"/>
  <line class="edge" x1="349.89173395223054" x2="349.89173395223054" y1="396.35187892997067" y2="396.35187892997067"/>
  <line class="edge" x1="349.89173395223054" x2="45.0" y1="396.35187892997067" y2="153.20883461285314"/>
  <line class="edge" x1="425.1937735804838" x2="45.0" y1="239.98558243636472" y2="326.76233025987636"/>
  <line class="edge" x1="425.1937735804838" x2="45.0" y1="239.98558243636472" y2="153.20883461285314"/>
  <line class="edge" x1="180.68958678922095" x2="180.68958678922095" y1="434.97116487272945" y2="434.97116487272945"/>
  <line class="edge" x1="45.0" x2="45.0" y1="326.76233025987636" y2="326.76233025987636"/>
  <line class="edge" x1="45.0" x2="45.0" y1="326.76233025987636" y2="153.20883461285314"/>
  <line class="edge" x1="45.0" x2="45.0" y1="153.20883461285314" y2="153.20883461285314"/>
  <line class="edge" x1="180.68958678922095" x2="45.0" y1="434.97116487272945" y2="326.76233025987636"/>
  <line class="edge" x1="349.89173395223054" x2="180.68958678922095" y1="396.35187892997067" y2="434.97116487272945"/>
  <line class="edge" x1="425.1937735804838" x2="180.68958678922095" y1="239.98558243636472" y2="434.97116487272945"/>
  <line class="edge" x1="180.68958678922095" x2="45.0" y1="434.97116487272945" y2="153.20883461285314"/>
  <circle class="node" cx="425.1937735804838" cy="239.98558243636472" r="40"/>
  <circle class="node" cx="180.68958678922095" cy="434.97116487272945" r="40"/>
  <circle class="node" cx="45.0" cy="326.76233025987636" r="40"/>
  <circle class="node" cx="349.89173395223054" cy="396.35187892997067" r="40"/>
  <circle class="node" cx="45.0" cy="153.20883461285314" r="40"/>
  <circle class="node" cx="180.6895867892209" cy="45.0" r="40"/>
  <circle class="node" cx="349.8917339522305" cy="83.61928594275875" r="40"/>
</svg>
