<?xml version="1.0" encoding="utf-8" ?>
<svg xmlns="http://www.w3.org/2000/svg" xmlns:ev="http://www.w3.org/2001/xml-events" xmlns:xlink="http://www.w3.org/1999/xlink" baseProfile="full" height="963.6299688148899" version="1.1" width="2150.1798504754647">
  <defs>
    <style type="text/css"><![CDATA[
	.node {
		fill: #ffb86c;
		stroke: white;
		stroke-width: 2;
	}
	.edge {
		stroke: white;
		stroke-width: 2;
	}
	]]></style>
  </defs>
  <line class="edge" x1="1082.5474289973279" x2="559.7215999612918" y1="844.7056330957777" y2="552.6421234742389"/>
  <line class="edge" x1="1296.6420341782741" x2="1029.9589010491918" y1="692.0812318647947" y2="629.4174399698711"/>
  <line class="edge" x1="721.4804385436064" x2="559.7215999612918" y1="123.7190119776825" y2="552.6421234742389"/>
  <line class="edge" x1="1706.490215864465" x2="1829.7081005021141" y1="480.16617235908177" y2="397.2006864382756"/>
  <line class="edge" x1="1169.311024670384" x2="745.812449815982" y1="620.0067481528861" y2="735.2082531523635"/>
  <line class="edge" x1="1296.6420341782741" x2="1563.4865036608314" y1="692.0812318647947" y2="918.6299688148899"/>
  <line class="edge" x1="1365.6076906825917" x2="1410.1634763506934" y1="539.8936382289003" y2="884.7351757041874"/>
  <line class="edge" x1="841.167299783138" x2="488.2805047755885" y1="590.9004485604753" y2="622.6147604023073"/>
  <line class="edge" x1="841.167299783138" x2="559.7215999612918" y1="590.9004485604753" y2="552.6421234742389"/>
  <line class="edge" x1="1029.9589010491918" x2="559.7215999612918" y1="629.4174399698711" y2="552.6421234742389"/>
  <line class="edge" x1="841.167299783138" x2="745.812449815982" y1="590.9004485604753" y2="735.2082531523635"/>
  <line class="edge" x1="313.8339109465844" x2="559.7215999612918" y1="705.3676212751787" y2="552.6421234742389"/>
  <line class="edge" x1="1365.6076906825917" x2="685.8748545661767" y1="539.8936382289003" y2="375.2202539382795"/>
  <line class="edge" x1="318.5358423145044" x2="488.2805047755885" y1="873.9961843876786" y2="622.6147604023073"/>
  <line class="edge" x1="318.5358423145044" x2="559.7215999612918" y1="873.9961843876786" y2="552.6421234742389"/>
  <line class="edge" x1="313.8339109465844" x2="488.2805047755885" y1="705.3676212751787" y2="622.6147604023073"/>
  <line class="edge" x1="685.8748545661767" x2="488.2805047755885" y1="375.2202539382795" y2="622.6147604023073"/>
  <line class="edge" x1="685.8748545661767" x2="559.7215999612918" y1="375.2202539382795" y2="552.6421234742389"/>
  <line class="edge" x1="1365.6076906825917" x2="1804.8730795148663" y1="539.8936382289003" y2="672.4084984627872"/>
  <line class="edge" x1="440.3989711115659" x2="455.1066141708638" y1="45.0" y2="241.3111558281463"/>
  <line class="edge" x1="488.2805047755885" x2="559.7215999612918" y1="622.6147604023073" y2="552.6421234742389"/>
  <line class="edge" x1="1365.6076906825917" x2="1706.490215864465" y1="539.8936382289003" y2="480.16617235908177"/>
  <line class="edge" x1="1847.6660722929842" x2="1804.8730795148663" y1="570.6282590081519" y2="672.4084984627872"/>
  <line class="edge" x1="440.3989711115659" x2="562.9662724918877" y1="45.0" y2="311.17519144873285"/>
  <line class="edge" x1="45.0" x2="216.492264653014" y1="523.0831749634957" y2="545.4881057584024"/>
  <line class="edge" x1="374.1008680676181" x2="559.7215999612918" y1="430.520989753186" y2="552.6421234742389"/>
  <line class="edge" x1="1169.311024670384" x2="1443.3549979329623" y1="620.0067481528861" y2="223.8392194162634"/>
  <line class="edge" x1="374.1008680676181" x2="216.492264653014" y1="430.520989753186" y2="545.4881057584024"/>
  <line class="edge" x1="315.7143846534601" x2="559.7215999612918" y1="202.1794006381241" y2="552.6421234742389"/>
  <line class="edge" x1="374.1008680676181" x2="488.2805047755885" y1="430.520989753186" y2="622.6147604023073"/>
  <line class="edge" x1="315.7143846534601" x2="488.2805047755885" y1="202.1794006381241" y2="622.6147604023073"/>
  <line class="edge" x1="1365.6076906825917" x2="1296.6420341782741" y1="539.8936382289003" y2="692.0812318647947"/>
  <line class="edge" x1="1169.311024670384" x2="1082.5474289973279" y1="620.0067481528861" y2="844.7056330957777"/>
  <line class="edge" x1="374.1008680676181" x2="562.9662724918877" y1="430.520989753186" y2="311.17519144873285"/>
  <line class="edge" x1="1011.8200461727552" x2="721.4804385436064" y1="494.2284629318627" y2="123.7190119776825"/>
  <line class="edge" x1="440.3989711115659" x2="685.8748545661767" y1="45.0" y2="375.2202539382795"/>
  <line class="edge" x1="45.0" x2="559.7215999612918" y1="523.0831749634957" y2="552.6421234742389"/>
  <line class="edge" x1="374.1008680676181" x2="455.1066141708638" y1="430.520989753186" y2="241.3111558281463"/>
  <line class="edge" x1="455.1066141708638" x2="685.8748545661767" y1="241.3111558281463" y2="375.2202539382795"/>
  <line class="edge" x1="216.492264653014" x2="559.7215999612918" y1="545.4881057584024" y2="552.6421234742389"/>
  <line class="edge" x1="821.4807221962528" x2="685.8748545661767" y1="273.0505648803254" y2="375.2202539382795"/>
  <line class="edge" x1="745.812449815982" x2="559.7215999612918" y1="735.2082531523635" y2="552.6421234742389"/>
  <line class="edge" x1="562.9662724918877" x2="559.7215999612918" y1="311.17519144873285" y2="552.6421234742389"/>
  <line class="edge" x1="745.812449815982" x2="488.2805047755885" y1="735.2082531523635" y2="622.6147604023073"/>
  <line class="edge" x1="1169.311024670384" x2="1029.9589010491918" y1="620.0067481528861" y2="629.4174399698711"/>
  <line class="edge" x1="821.4807221962528" x2="559.7215999612918" y1="273.0505648803254" y2="552.6421234742389"/>
  <line class="edge" x1="216.492264653014" x2="488.2805047755885" y1="545.4881057584024" y2="622.6147604023073"/>
  <line class="edge" x1="1011.8200461727552" x2="1238.0073025828804" y1="494.2284629318627" y2="467.0347959320228"/>
  <line class="edge" x1="1011.8200461727552" x2="1029.9589010491918" y1="494.2284629318627" y2="629.4174399698711"/>
  <line class="edge" x1="1365.6076906825917" x2="1829.7081005021141" y1="539.8936382289003" y2="397.2006864382756"/>
  <line class="edge" x1="152.22100739167388" x2="559.7215999612918" y1="806.6065101051925" y2="552.6421234742389"/>
  <line class="edge" x1="467.47950752912436" x2="559.7215999612918" y1="903.9104698614512" y2="552.6421234742389"/>
  <line class="edge" x1="467.47950752912436" x2="488.2805047755885" y1="903.9104698614512" y2="622.6147604023073"/>
  <line class="edge" x1="1011.8200461727552" x2="841.167299783138" y1="494.2284629318627" y2="590.9004485604753"/>
  <line class="edge" x1="152.22100739167388" x2="488.2805047755885" y1="806.6065101051925" y2="622.6147604023073"/>
  <line class="edge" x1="1169.311024670384" x2="1011.8200461727552" y1="620.0067481528861" y2="494.2284629318627"/>
  <line class="edge" x1="1365.6076906825917" x2="1443.3549979329623" y1="539.8936382289003" y2="223.8392194162634"/>
  <line class="edge" x1="1804.8730795148663" x2="2105.1798504754647" y1="672.4084984627872" y2="682.4459215905044"/>
  <line class="edge" x1="1365.6076906825917" x2="1082.5474289973279" y1="539.8936382289003" y2="844.7056330957777"/>
  <line class="edge" x1="1365.6076906825917" x2="1011.8200461727552" y1="539.8936382289003" y2="494.2284629318627"/>
  <line class="edge" x1="1296.6420341782741" x2="1238.0073025828804" y1="692.0812318647947" y2="467.0347959320228"/>
  <line class="edge" x1="1365.6076906825917" x2="1238.0073025828804" y1="539.8936382289003" y2="467.0347959320228"/>
  <line class="edge" x1="1365.6076906825917" x2="1169.311024670384" y1="539.8936382289003" y2="620.0067481528861"/>
  <line class="edge" x1="1011.8200461727552" x2="488.2805047755885" y1="494.2284629318627" y2="622.6147604023073"/>
  <line class="edge" x1="1169.311024670384" x2="1296.6420341782741" y1="620.0067481528861" y2="692.0812318647947"/>
  <line class="edge" x1="1847.6660722929842" x2="2105.1798504754647" y1="570.6282590081519" y2="682.4459215905044"/>
  <line class="edge" x1="1365.6076906825917" x2="1563.4865036608314" y1="539.8936382289003" y2="918.6299688148899"/>
  <line class="edge" x1="1365.6076906825917" x2="841.167299783138" y1="539.8936382289003" y2="590.9004485604753"/>
  <line class="edge" x1="1365.6076906825917" x2="1635.8138603629282" y1="539.8936382289003" y2="236.9932753969581"/>
  <line class="edge" x1="1365.6076906825917" x2="1029.9589010491918" y1="539.8936382289003" y2="629.4174399698711"/>
  <line class="edge" x1="1011.8200461727552" x2="821.4807221962528" y1="494.2284629318627" y2="273.0505648803254"/>
  <line class="edge" x1="1011.8200461727552" x2="562.9662724918877" y1="494.2284629318627" y2="311.17519144873285"/>
  <line class="edge" x1="1847.6660722929842" x2="1829.7081005021141" y1="570.6282590081519" y2="397.2006864382756"/>
  <line class="edge" x1="1706.490215864465" x2="1804.8730795148663" y1="480.16617235908177" y2="672.4084984627872"/>
  <line class="edge" x1="1011.8200461727552" x2="1296.6420341782741" y1="494.2284629318627" y2="692.0812318647947"/>
  <line class="edge" x1="1365.6076906825917" x2="1847.6660722929842" y1="539.8936382289003" y2="570.6282590081519"/>
  <line class="edge" x1="1169.311024670384" x2="1410.1634763506934" y1="620.0067481528861" y2="884.7351757041874"/>
  <line class="edge" x1="1169.311024670384" x2="1238.0073025828804" y1="620.0067481528861" y2="467.0347959320228"/>
  <circle class="node" cx="455.1066141708638" cy="241.3111558281463" r="40"/>
  <text dominant-baseline="central" font-family="sans-serif" font-size="24" text-anchor="middle" x="455.1066141708638" y="241.3111558281463">25</text>
  <circle class="node" cx="562.9662724918877" cy="311.17519144873285" r="40"/>
  <text dominant-baseline="central" font-family="sans-serif" font-size="24" text-anchor="middle" x="562.9662724918877" y="311.17519144873285">27</text>
  <circle class="node" cx="216.492264653014" cy="545.4881057584024" r="40"/>
  <text dominant-baseline="central" font-family="sans-serif" font-size="24" text-anchor="middle" x="216.492264653014" y="545.4881057584024">29</text>
  <circle class="node" cx="318.5358423145044" cy="873.9961843876786" r="40"/>
  <text dominant-baseline="central" font-family="sans-serif" font-size="24" text-anchor="middle" x="318.5358423145044" y="873.9961843876786">14</text>
  <circle class="node" cx="313.8339109465844" cy="705.3676212751787" r="40"/>
  <text dominant-baseline="central" font-family="sans-serif" font-size="24" text-anchor="middle" x="313.8339109465844" y="705.3676212751787">15</text>
  <circle class="node" cx="1443.3549979329623" cy="223.8392194162634" r="40"/>
  <text dominant-baseline="central" font-family="sans-serif" font-size="24" text-anchor="middle" x="1443.3549979329623" y="223.8392194162634">17</text>
  <circle class="node" cx="1829.7081005021141" cy="397.2006864382756" r="40"/>
  <text dominant-baseline="central" font-family="sans-serif" font-size="24" text-anchor="middle" x="1829.7081005021141" y="397.2006864382756">10</text>
  <circle class="node" cx="1365.6076906825917" cy="539.8936382289003" r="40"/>
  <text dominant-baseline="central" font-family="sans-serif" font-size="24" text-anchor="middle" x="1365.6076906825917" y="539.8936382289003">0</text>
  <circle class="node" cx="1296.6420341782741" cy="692.0812318647947" r="40"/>
  <text dominant-baseline="central" font-family="sans-serif" font-size="24" text-anchor="middle" x="1296.6420341782741" y="692.0812318647947">3</text>
  <circle class="node" cx="1706.490215864465" cy="480.16617235908177" r="40"/>
  <text dominant-baseline="central" font-family="sans-serif" font-size="24" text-anchor="middle" x="1706.490215864465" y="480.16617235908177">4</text>
  <circle class="node" cx="1847.6660722929842" cy="570.6282590081519" r="40"/>
  <text dominant-baseline="central" font-family="sans-serif" font-size="24" text-anchor="middle" x="1847.6660722929842" y="570.6282590081519">5</text>
  <circle class="node" cx="841.167299783138" cy="590.9004485604753" r="40"/>
  <text dominant-baseline="central" font-family="sans-serif" font-size="24" text-anchor="middle" x="841.167299783138" y="590.9004485604753">8</text>
  <circle class="node" cx="1029.9589010491918" cy="629.4174399698711" r="40"/>
  <text dominant-baseline="central" font-family="sans-serif" font-size="24" text-anchor="middle" x="1029.9589010491918" y="629.4174399698711">13</text>
  <circle class="node" cx="685.8748545661767" cy="375.2202539382795" r="40"/>
  <text dominant-baseline="central" font-family="sans-serif" font-size="24" text-anchor="middle" x="685.8748545661767" y="375.2202539382795">31</text>
  <circle class="node" cx="559.7215999612918" cy="552.6421234742389" r="40"/>
  <text dominant-baseline="central" font-family="sans-serif" font-size="24" text-anchor="middle" x="559.7215999612918" y="552.6421234742389">33</text>
  <circle class="node" cx="1082.5474289973279" cy="844.7056330957777" r="40"/>
  <text dominant-baseline="central" font-family="sans-serif" font-size="24" text-anchor="middle" x="1082.5474289973279" y="844.7056330957777">19</text>
  <circle class="node" cx="374.1008680676181" cy="430.520989753186" r="40"/>
  <text dominant-baseline="central" font-family="sans-serif" font-size="24" text-anchor="middle" x="374.1008680676181" y="430.520989753186">23</text>
  <circle class="node" cx="1410.1634763506934" cy="884.7351757041874" r="40"/>
  <text dominant-baseline="central" font-family="sans-serif" font-size="24" text-anchor="middle" x="1410.1634763506934" y="884.7351757041874">21</text>
  <circle class="node" cx="440.3989711115659" cy="45.0" r="40"/>
  <text dominant-baseline="central" font-family="sans-serif" font-size="24" text-anchor="middle" x="440.3989711115659" y="45.0">24</text>
  <circle class="node" cx="152.22100739167388" cy="806.6065101051925" r="40"/>
  <text dominant-baseline="central" font-family="sans-serif" font-size="24" text-anchor="middle" x="152.22100739167388" y="806.6065101051925">20</text>
  <circle class="node" cx="45.0" cy="523.0831749634957" r="40"/>
  <text dominant-baseline="central" font-family="sans-serif" font-size="24" text-anchor="middle" x="45.0" y="523.0831749634957">26</text>
  <circle class="node" cx="821.4807221962528" cy="273.0505648803254" r="40"/>
  <text dominant-baseline="central" font-family="sans-serif" font-size="24" text-anchor="middle" x="821.4807221962528" y="273.0505648803254">28</text>
  <circle class="node" cx="745.812449815982" cy="735.2082531523635" r="40"/>
  <text dominant-baseline="central" font-family="sans-serif" font-size="24" text-anchor="middle" x="745.812449815982" y="735.2082531523635">30</text>
  <circle class="node" cx="2105.1798504754647" cy="682.4459215905044" r="40"/>
  <text dominant-baseline="central" font-family="sans-serif" font-size="24" text-anchor="middle" x="2105.1798504754647" y="682.4459215905044">16</text>
  <circle class="node" cx="1635.8138603629282" cy="236.9932753969581" r="40"/>
  <text dominant-baseline="central" font-family="sans-serif" font-size="24" text-anchor="middle" x="1635.8138603629282" y="236.9932753969581">11</text>
  <circle class="node" cx="315.7143846534601" cy="202.1794006381241" r="40"/>
  <text dominant-baseline="central" font-family="sans-serif" font-size="24" text-anchor="middle" x="315.7143846534601" y="202.1794006381241">18</text>
  <circle class="node" cx="1563.4865036608314" cy="918.6299688148899" r="40"/>
  <text dominant-baseline="central" font-family="sans-serif" font-size="24" text-anchor="middle" x="1563.4865036608314" y="918.6299688148899">12</text>
  <circle class="node" cx="1011.8200461727552" cy="494.2284629318627" r="40"/>
  <text dominant-baseline="central" font-family="sans-serif" font-size="24" text-anchor="middle" x="1011.8200461727552" y="494.2284629318627">2</text>
  <circle class="node" cx="1169.311024670384" cy="620.0067481528861" r="40"/>
  <text dominant-baseline="central" font-family="sans-serif" font-size="24" text-anchor="middle" x="1169.311024670384" y="620.0067481528861">1</text>
  <circle class="node" cx="1804.8730795148663" cy="672.4084984627872" r="40"/>
  <text dominant-baseline="central" font-family="sans-serif" font-size="24" text-anchor="middle" x="1804.8730795148663" y="672.4084984627872">6</text>
  <circle class="node" cx="1238.0073025828804" cy="467.0347959320228" r="40"/>
  <text dominant-baseline="central" font-family="sans-serif" font-size="24" text-anchor="middle" x="1238.0073025828804" y="467.0347959320228">7</text>
  <circle class="node" cx="721.4804385436064" cy="123.7190119776825" r="40"/>
  <text dominant-baseline="central" font-family="sans-serif" font-size="24" text-anchor="middle" x="721.4804385436064" y="123.7190119776825">9</text>
  <circle class="node" cx="467.47950752912436" cy="903.9104698614512" r="40"/>
  <text dominant-baseline="central" font-family="sans-serif" font-size="24" text-anchor="middle" x="467.47950752912436" y="903.9104698614512">22</text>
  <circle class="node" cx="488.2805047755885" cy="622.6147604023073" r="40"/>
  <text dominant-baseline="central" font-family="sans-serif" font-size="24" text-anchor="middle" x="488.2805047755885" y="622.6147604023073">32</text>
</svg>
