<?xml version="1.0" encoding="utf-8" ?>
<svg xmlns="http://www.w3.org/2000/svg" xmlns:ev="http://www.w3.org/2001/xml-events" xmlns:xlink="http://www.w3.org/1999/xlink" baseProfile="full" height="350" version="1.1" width="500">
  <defs>
    <style type="text/css"><![CDATA[
	.node {
		fill: #ffb86c;
		stroke: white;
		stroke-width: 2;
	}
	.edge {
		stroke: white;
		stroke-width: 2;
	}
	.edge.highlight {
		stroke: #ff7f2a;
		stroke-width: 10;
	}
	]]></style>
    <marker id="id6" markerHeight="3" markerUnits="strokeWidth" markerWidth="4" viewBox="0,0,10,10">
      <path d="M 0 0 L 10 5 L 0 10 z" fill="white"/>
    </marker>
  </defs>
  <line class="edge" x1="250" x2="325" y1="225" y2="325"/>
  <line class="edge" x1="400" x2="475" y1="225" y2="325"/>
  <line class="edge" x1="175" x2="250" y1="125" y2="225"/>
  <line class="edge" x1="175" x2="100" y1="125" y2="225"/>
  <line class="edge" x1="100" x2="175" y1="225" y2="325"/>
  <line class="edge" x1="250" x2="400" y1="225" y2="225"/>
  <line class="edge" x1="25" x2="175" y1="325" y2="325"/>
  <line class="edge" x1="175" x2="325" y1="325" y2="325"/>
  <line class="edge" x1="250" x2="175" y1="225" y2="325"/>
  <line class="edge" x1="400" x2="325" y1="225" y2="325"/>
  <line class="edge" x1="100" x2="250" y1="225" y2="225"/>
  <line class="edge" x1="100" x2="25" y1="225" y2="325"/>
  <line class="edge" x1="175" x2="325" y1="125" y2="125"/>
  <line class="edge" x1="325" x2="400" y1="125" y2="225"/>
  <line class="edge" x1="325" x2="475" y1="325" y2="325"/>
  <line class="edge" x1="250" x2="175" y1="25" y2="125"/>
  <line class="edge" x1="325" x2="250" y1="125" y2="225"/>
  <line class="edge" x1="250" x2="325" y1="25" y2="125"/>
  <circle class="node" cx="175" cy="325" r="20"/>
  <circle class="node" cx="250" cy="225" r="20"/>
  <circle class="node" cx="400" cy="225" r="20"/>
  <circle class="node" cx="250" cy="25" r="20"/>
  <circle class="node" cx="25" cy="325" r="20"/>
  <circle class="node" cx="100" cy="225" r="20"/>
  <circle class="node" cx="475" cy="325" r="20"/>
  <circle class="node" cx="325" cy="325" r="20"/>
  <circle class="node" cx="175" cy="125" r="20"/>
  <circle class="node" cx="325" cy="125" r="20"/>
</svg>
