<?xml version="1.0" encoding="utf-8" ?>
<svg xmlns="http://www.w3.org/2000/svg" xmlns:ev="http://www.w3.org/2001/xml-events" xmlns:xlink="http://www.w3.org/1999/xlink" baseProfile="full" height="439.97116487272945" version="1.1" width="430.1937735804838">
  <defs>
    <style type="text/css"><![CDATA[
	.node {
		fill: #ffb86c;
		stroke: white;
		stroke-width: 2;
	}
	.edge {
		stroke: white;
		stroke-width: 2;
	}
	.edge.highlight {
		stroke: #ff7f2a;
		stroke-width: 10;
	}
	]]></style>
    <marker id="id5" markerHeight="3" markerUnits="strokeWidth" markerWidth="4" viewBox="0,0,10,10">
      <path d="M 0 0 L 10 5 L 0 10 z" fill="white"/>
    </marker>
  </defs>
  <line class="edge" x1="405.1937735804838" x2="329.8917339522305" y1="219.98558243636472" y2="63.61928594275875"/>
  <line class="edge" x1="25.0" x2="160.6895867892209" y1="306.76233025987636" y2="25.0"/>
  <line class="edge" x1="405.1937735804838" x2="329.89173395223054" y1="219.98558243636472" y2="376.35187892997067"/>
  <line class="edge" x1="405.1937735804838" x2="160.6895867892209" y1="219.98558243636472" y2="25.0"/>
  <line class="edge" x1="329.89173395223054" x2="25.0" y1="376.35187892997067" y2="306.76233025987636"/>
  <line class="edge" x1="25.0" x2="160.6895867892209" y1="133.20883461285314" y2="25.0"/>
  <line class="edge" x1="405.1937735804838" x2="25.0" y1="219.98558243636472" y2="306.76233025987636"/>
  <line class="edge" x1="160.6895867892209" x2="329.8917339522305" y1="25.0" y2="63.61928594275875"/>
  <line class="edge" x1="160.68958678922095" x2="329.8917339522305" y1="414.97116487272945" y2="63.61928594275875"/>
  <line class="edge" x1="329.89173395223054" x2="25.0" y1="376.35187892997067" y2="133.20883461285314"/>
  <line class="edge" x1="160.68958678922095" x2="25.0" y1="414.97116487272945" y2="306.76233025987636"/>
  <line class="edge" x1="160.68958678922095" x2="25.0" y1="414.97116487272945" y2="133.20883461285314"/>
  <line class="edge" x1="405.1937735804838" x2="160.68958678922095" y1="219.98558243636472" y2="414.97116487272945"/>
  <line class="edge" x1="25.0" x2="329.8917339522305" y1="306.76233025987636" y2="63.61928594275875"/>
  <line class="edge" x1="329.89173395223054" x2="160.68958678922095" y1="376.35187892997067" y2="414.97116487272945"/>
  <line class="edge" x1="405.1937735804838" x2="25.0" y1="219.98558243636472" y2="133.20883461285314"/>
  <line class="edge" x1="25.0" x2="329.8917339522305" y1="133.20883461285314" y2="63.61928594275875"/>
  <line class="edge" x1="405.1937735804838" x2="405.1937735804838" y1="219.98558243636472" y2="219.98558243636472"/>
  <line class="edge" x1="329.89173395223054" x2="329.89173395223054" y1="376.35187892997067" y2="376.35187892997067"/>
  <line class="edge" x1="160.68958678922095" x2="160.68958678922095" y1="414.97116487272945" y2="414.97116487272945"/>
  <line class="edge" x1="25.0" x2="25.0" y1="306.76233025987636" y2="306.76233025987636"/>
  <line class="edge" x1="25.0" x2="25.0" y1="133.20883461285314" y2="133.20883461285314"/>
  <line class="edge" x1="160.6895867892209" x2="160.6895867892209" y1="25.0" y2="25.0"/>
  <line class="edge" x1="329.8917339522305" x2="329.8917339522305" y1="63.61928594275875" y2="63.61928594275875"/>
  <line class="edge" x1="329.89173395223054" x2="160.6895867892209" y1="376.35187892997067" y2="25.0"/>
  <line class="edge" x1="160.68958678922095" x2="160.6895867892209" y1="414.97116487272945" y2="25.0"/>
  <line class="edge" x1="25.0" x2="25.0" y1="306.76233025987636" y2="133.20883461285314"/>
  <line class="edge" x1="329.89173395223054" x2="329.8917339522305" y1="376.35187892997067" y2="63.61928594275875"/>
  <circle class="node" cx="160.68958678922095" cy="414.97116487272945" r="20"/>
  <circle class="node" cx="25.0" cy="133.20883461285314" r="20"/>
  <circle class="node" cx="25.0" cy="306.76233025987636" r="20"/>
  <circle class="node" cx="405.1937735804838" cy="219.98558243636472" r="20"/>
  <circle class="node" cx="329.89173395223054" cy="376.35187892997067" r="20"/>
  <circle class="node" cx="160.6895867892209" cy="25.0" r="20"/>
  <circle class="node" cx="329.8917339522305" cy="63.61928594275875" r="20"/>
</svg>
