<?xml version="1.0" encoding="utf-8" ?>
<svg xmlns="http://www.w3.org/2000/svg" xmlns:ev="http://www.w3.org/2001/xml-events" xmlns:xlink="http://www.w3.org/1999/xlink" baseProfile="full" height="200" version="1.1" width="450">
  <defs>
    <style type="text/css"><![CDATA[
	.node {
		fill: #ffb86c;
		stroke: white;
		stroke-width: 2;
	}
	.edge {
		stroke: white;
		stroke-width: 2;
	}
	.edge.highlight {
		stroke: #ff7f2a;
		stroke-width: 10;
	}
	]]></style>
    <marker id="id2" markerHeight="3" markerUnits="strokeWidth" markerWidth="4" viewBox="0,0,10,10">
      <path d="M 0 0 L 10 5 L 0 10 z" fill="white"/>
    </marker>
  </defs>
  <line class="edge" x1="325" x2="425" y1="175" y2="100"/>
  <line class="edge" x1="25" x2="125" y1="100" y2="175"/>
  <line class="edge" x1="125" x2="25" y1="25" y2="100"/>
  <line class="edge" x1="325" x2="225" y1="25" y2="25"/>
  <line class="edge" x1="125" x2="225" y1="175" y2="175"/>
  <line class="edge" x1="425" x2="325" y1="100" y2="25"/>
  <line class="edge" x1="225" x2="325" y1="175" y2="175"/>
  <line class="edge" x1="225" x2="125" y1="25" y2="25"/>
  <circle class="node" cx="225" cy="175" r="20"/>
  <circle class="node" cx="325" cy="25" r="20"/>
  <circle class="node" cx="225" cy="25" r="20"/>
  <circle class="node" cx="25" cy="100" r="20"/>
  <circle class="node" cx="125" cy="175" r="20"/>
  <circle class="node" cx="125" cy="25" r="20"/>
  <circle class="node" cx="325" cy="175" r="20"/>
  <circle class="node" cx="425" cy="100" r="20"/>
</svg>
