<?xml version="1.0" encoding="UTF-8" standalone="no"?>
<svg
   height="141.49974"
   version="1.1"
   width="468.04196"
   id="svg19"
   sodipodi:docname="triangle.svg"
   inkscape:version="1.3 (0e150ed6c4, 2023-07-21)"
   xmlns:inkscape="http://www.inkscape.org/namespaces/inkscape"
   xmlns:sodipodi="http://sodipodi.sourceforge.net/DTD/sodipodi-0.dtd"
   xmlns="http://www.w3.org/2000/svg"
   xmlns:svg="http://www.w3.org/2000/svg">
  <sodipodi:namedview
     id="namedview19"
     pagecolor="#505050"
     bordercolor="#eeeeee"
     borderopacity="1"
     inkscape:showpageshadow="0"
     inkscape:pageopacity="0"
     inkscape:pagecheckerboard="0"
     inkscape:deskcolor="#505050"
     inkscape:zoom="0.90333335"
     inkscape:cx="169.37269"
     inkscape:cy="-139.48339"
     inkscape:window-width="1278"
     inkscape:window-height="1000"
     inkscape:window-x="1913"
     inkscape:window-y="0"
     inkscape:window-maximized="0"
     inkscape:current-layer="svg19"
     showgrid="false" />
  <defs
     id="defs1">
    <style
       type="text/css"
       id="style1"><![CDATA[
	.node {
		fill: #ffb86c;
		stroke: white;
		stroke-width: 2;
	}
	.edge {
		stroke: white;
		stroke-width: 2;
	}
	.edge.highlight {
		stroke: #ff7f2a;
		stroke-width: 10;
	}
	]]></style>
    <marker
       id="id3"
       markerHeight="3"
       markerUnits="strokeWidth"
       markerWidth="4"
       viewBox="0 0 10 10">
      <path
         d="M 0,0 10,5 0,10 Z"
         fill="#ffffff"
         id="path1" />
    </marker>
  </defs>
  <g
     id="path12"
     transform="translate(-207.39572,-15.570048)">
    <path
       style="color:#000000;fill:#ffffff;fill-rule:evenodd;-inkscape-stroke:none"
       d="m 280.74219,42.962891 -1.25,1.5625 82.04101,65.630859 1.24805,-1.56055 z"
       id="path47" />
    <g
       id="g44">
      <g
         id="path44">
        <path
           style="color:#000000;fill:#ffffff;fill-rule:evenodd;-inkscape-stroke:none"
           d="m 366.66256,112.98024 -9.87799,-1.49927 6.24695,-7.80869 z"
           id="path45" />
        <path
           style="color:#000000;fill:#ffffff;fill-rule:evenodd;-inkscape-stroke:none"
           d="m 363.23242,102.35352 -7.68945,9.61328 12.16015,1.8457 -0.41992,-1.07422 z m -0.40234,2.63671 2.79101,7.15625 -7.5957,-1.15039 z"
           id="path46" />
      </g>
    </g>
  </g>
  <g
     id="path3">
    <path
       style="color:#000000;fill:#ffffff;-inkscape-stroke:none"
       d="m 33.388672,108.26758 c -1.383648,0.0276 -2.79033,0.28052 -4.222656,0.80273 -5.729305,2.08886 -11.592398,8.21436 -18.251953,20.45313 l 1.755859,0.95703 c 6.555921,-12.04831 12.237647,-17.72942 17.179687,-19.53125 4.942041,-1.80183 9.406998,0.0143 14.152344,3.61328 4.745346,3.59902 9.571145,8.94937 14.810547,13.75195 5.239402,4.80259 10.923876,9.09376 17.544922,10.41797 9.156617,1.83133 15.862445,-2.38945 21.996094,-7.07422 6.133644,-4.68476 11.829924,-9.79837 19.269534,-10.625 3.29021,-0.36558 5.56218,0.18312 7.41992,1.22657 1.85774,1.04345 3.32222,2.63169 4.79297,4.44726 2.9415,3.63115 5.93684,8.19955 12.34179,9.80078 6.22536,1.55635 10.73576,1.15157 14.11719,-1.46289 3.38143,-2.61446 5.48806,-7.16775 7.55664,-13.59179 l -1.90429,-0.61329 c -2.02924,6.30187 -4.08164,10.46327 -6.875,12.62305 -2.79336,2.15978 -6.47313,2.58778 -12.41016,1.10352 -5.68703,-1.42176 -8.23691,-5.37115 -11.27149,-9.11719 -1.51728,-1.87302 -3.14855,-3.68744 -5.36718,-4.93359 -2.21864,-1.24616 -5.00174,-1.87286 -8.6211,-1.47071 -8.21812,0.91313 -14.22216,6.411 -20.263668,11.02539 -6.041512,4.6144 -11.98688,8.37997 -20.390625,6.69922 -6.015981,-1.2032 -11.441266,-5.21572 -16.583985,-9.92969 -5.142718,-4.71396 -9.971578,-10.09293 -14.953125,-13.87109 -3.736159,-2.83362 -7.671322,-4.78392 -11.822265,-4.70117 z"
       id="path13" />
    <g
       id="g9">
      <g
         id="path9">
        <path
           style="color:#000000;fill:#ffffff;fill-rule:evenodd;-inkscape-stroke:none"
           d="m 164.66802,115.65353 2.10805,9.7662 -9.51868,-3.06507 z"
           id="path10" />
        <path
           style="color:#000000;fill:#ffffff;fill-rule:evenodd;-inkscape-stroke:none"
           d="m 165.07617,114.38477 -0.85547,0.77343 -8.26758,7.47657 11.71875,3.77343 z m -0.8164,2.53711 1.62109,7.50976 -7.31836,-2.35742 z"
           id="path11" />
      </g>
    </g>
  </g>
  <g
     id="path2">
    <path
       style="color:#000000;fill:#ffffff;-inkscape-stroke:none"
       d="m 56.380859,38.626953 c -2.469248,3.29233 -2.896313,6.440402 -2.105468,9.228516 0.790845,2.788114 2.653121,5.203301 4.529296,7.548828 1.876176,2.345527 3.779841,4.628932 4.810547,6.951172 1.030707,2.32224 1.273822,4.602748 -0.134765,7.419922 -3.65137,7.30274 -9.298211,10.694579 -15.757813,12.746093 -6.459601,2.051515 -13.688425,2.663186 -20.179687,4.306641 -6.491263,1.643455 -12.352824,4.42581 -15.59961,10.861328 -3.2467857,6.435517 -3.8643897,16.265607 -0.576171,31.964847 l 1.957031,-0.41016 c -3.243121,-15.48392 -2.513661,-24.86668 0.40625,-30.654296 2.919911,-5.787613 8.045157,-8.239929 14.302734,-9.824219 6.257577,-1.58429 13.539433,-2.194358 20.294922,-4.339844 6.755489,-2.145485 13.027329,-5.927704 16.941406,-13.755859 1.659295,-3.318591 1.372154,-6.42706 0.173828,-9.126953 -1.198325,-2.699894 -3.222413,-5.07117 -5.076172,-7.388672 -1.853758,-2.317502 -3.522037,-4.573414 -4.166015,-6.84375 -0.643978,-2.270336 -0.407755,-4.568307 1.779297,-7.484375 z"
       id="path17" />
    <g
       id="g14">
      <g
         id="path14">
        <path
           style="color:#000000;fill:#ffffff;fill-rule:evenodd;-inkscape-stroke:none"
           d="m 60.64193,34.611 -1.190002,9.919999 -7.999999,-6.000001 z"
           id="path15" />
        <path
           style="color:#000000;fill:#ffffff;fill-rule:evenodd;-inkscape-stroke:none"
           d="m 61.441406,33.544922 -1.060547,0.453125 -10.253906,4.373047 9.849609,7.386718 z m -1.597656,2.132812 -0.916016,7.626953 -6.152343,-4.613281 z"
           id="path16" />
      </g>
    </g>
  </g>
  <circle
     class="node"
     cx="68.662354"
     cy="24.645502"
     id="circle2"
     r="11.5"
     style="fill:#ffb86c;stroke:#ffffff;stroke-width:2" />
  <circle
     class="node"
     cx="12.5"
     cy="128.99974"
     id="circle4"
     r="11.5"
     style="fill:#ffb86c;stroke:#ffffff;stroke-width:2" />
  <circle
     class="node"
     cx="168.66235"
     cy="104.64551"
     id="circle5"
     r="11.5"
     style="fill:#ffb86c;stroke:#ffffff;stroke-width:2" />
  <text
     xml:space="preserve"
     style="font-size:16px;font-family:sans-serif;-inkscape-font-specification:sans-serif;text-align:center;text-anchor:middle;fill:#000000;stroke:none;stroke-width:2;stroke-dasharray:none"
     x="12.614563"
     y="133.38165"
     id="text14"><tspan
       sodipodi:role="line"
       id="tspan14"
       x="12.614563"
       y="133.38165"
       style="font-size:16px">s</tspan></text>
  <text
     xml:space="preserve"
     style="font-size:16px;font-family:sans-serif;-inkscape-font-specification:sans-serif;text-align:center;text-anchor:middle;fill:#000000;stroke:none;stroke-width:2;stroke-dasharray:none"
     x="68.776947"
     y="30.027201"
     id="text17"><tspan
       sodipodi:role="line"
       id="tspan17"
       x="68.776947"
       y="30.027201"
       style="font-size:16px">i</tspan></text>
  <text
     xml:space="preserve"
     style="font-size:16px;font-family:sans-serif;-inkscape-font-specification:sans-serif;text-align:center;text-anchor:middle;fill:#000000;stroke:none;stroke-width:2;stroke-dasharray:none"
     x="168.77695"
     y="110.02722"
     id="text19"><tspan
       sodipodi:role="line"
       id="tspan19"
       x="168.77695"
       y="110.02722"
       style="font-size:16px">j</tspan></text>
  <text
     xml:space="preserve"
     style="font-size:16px;font-family:sans-serif;-inkscape-font-specification:sans-serif;text-align:center;text-anchor:middle;fill:#000000;stroke:none;stroke-width:2;stroke-dasharray:none"
     x="-43.538742"
     y="26.215609"
     id="text20"><tspan
       sodipodi:role="line"
       id="tspan20"
       x="-43.538742"
       y="26.215609" /></text>
  <text
     xml:space="preserve"
     style="font-size:10.6667px;font-family:sans-serif;-inkscape-font-specification:sans-serif;text-align:center;text-anchor:middle;fill:#ffffff;stroke:none;stroke-width:2;stroke-dasharray:none"
     x="136.21768"
     y="54.569843"
     id="text23"><tspan
       sodipodi:role="line"
       id="tspan23"
       x="136.21768"
       y="54.569843"
       style="font-size:10.6667px;fill:#ffffff">cost(i, j)</tspan></text>
  <text
     xml:space="preserve"
     style="font-size:10.6667px;font-family:sans-serif;-inkscape-font-specification:sans-serif;text-align:center;text-anchor:middle;fill:#ffffff;stroke:none;stroke-width:2;stroke-dasharray:none"
     x="69.097321"
     y="7.8613582"
     id="text1"><tspan
       sodipodi:role="line"
       id="tspan1"
       x="69.097321"
       y="7.8613582"
       style="font-size:10.6667px;fill:#ffffff">c[i]</tspan></text>
  <text
     xml:space="preserve"
     style="font-size:10.6667px;font-family:sans-serif;-inkscape-font-specification:sans-serif;text-align:center;text-anchor:middle;fill:#ffffff;stroke:none;stroke-width:2;stroke-dasharray:none"
     x="185.79843"
     y="122.52557"
     id="text2"><tspan
       sodipodi:role="line"
       id="tspan2"
       x="185.79843"
       y="122.52557"
       style="font-size:10.6667px;fill:#ffffff">c[j]</tspan></text>
  <path
     style="fill:none;stroke:#ffffff;stroke-width:2;stroke-dasharray:none"
     d="M 247.72604,102.66611 344.58951,37.905966 467.57422,102.99035 Z"
     id="path5"
     sodipodi:nodetypes="cccc" />
  <text
     xml:space="preserve"
     style="font-size:10.6667px;font-family:sans-serif;-inkscape-font-specification:sans-serif;text-align:center;text-anchor:middle;fill:#ffffff;stroke:none;stroke-width:2;stroke-dasharray:none"
     x="295.53275"
     y="62.99789"
     id="text5"><tspan
       sodipodi:role="line"
       id="tspan5"
       x="295.53275"
       y="62.99789"
       style="font-size:10.6667px;fill:#ffffff">x</tspan></text>
  <text
     xml:space="preserve"
     style="font-size:10.6667px;font-family:sans-serif;-inkscape-font-specification:sans-serif;text-align:center;text-anchor:middle;fill:#ffffff;stroke:none;stroke-width:2;stroke-dasharray:none"
     x="409.53275"
     y="62.99789"
     id="text6"><tspan
       sodipodi:role="line"
       id="tspan6"
       x="409.53275"
       y="62.99789"
       style="font-size:10.6667px;fill:#ffffff">y</tspan></text>
  <text
     xml:space="preserve"
     style="font-size:10.6667px;font-family:sans-serif;-inkscape-font-specification:sans-serif;text-align:center;text-anchor:middle;fill:#ffffff;stroke:none;stroke-width:2;stroke-dasharray:none"
     x="355.53275"
     y="114.99789"
     id="text7"><tspan
       sodipodi:role="line"
       id="tspan7"
       x="355.53275"
       y="114.99789"
       style="font-size:10.6667px;fill:#ffffff">z</tspan></text>
  <text
     xml:space="preserve"
     style="font-size:16px;font-family:sans-serif;-inkscape-font-specification:sans-serif;text-align:center;text-anchor:middle;fill:#ffffff;stroke:none;stroke-width:2;stroke-dasharray:none"
     x="351.10471"
     y="85.662094"
     id="text8"><tspan
       sodipodi:role="line"
       id="tspan8"
       x="351.10471"
       y="85.662094"
       style="font-size:16px;fill:#ffffff">x + y ≥ z</tspan></text>
</svg>
