<?xml version="1.0" encoding="UTF-8" standalone="no"?>
<!-- Created with Inkscape (http://www.inkscape.org/) -->

<svg
   width="177.61726mm"
   height="24.055286mm"
   viewBox="0 0 177.61726 24.055286"
   version="1.1"
   id="svg1"
   sodipodi:docname="ds-linked-list.svg"
   inkscape:version="1.3 (0e150ed6c4, 2023-07-21)"
   inkscape:export-filename="ds-linked-list.svg"
   inkscape:export-xdpi="96"
   inkscape:export-ydpi="96"
   xmlns:inkscape="http://www.inkscape.org/namespaces/inkscape"
   xmlns:sodipodi="http://sodipodi.sourceforge.net/DTD/sodipodi-0.dtd"
   xmlns="http://www.w3.org/2000/svg"
   xmlns:svg="http://www.w3.org/2000/svg">
  <sodipodi:namedview
     id="namedview1"
     pagecolor="#505050"
     bordercolor="#eeeeee"
     borderopacity="1"
     inkscape:showpageshadow="0"
     inkscape:pageopacity="0"
     inkscape:pagecheckerboard="0"
     inkscape:deskcolor="#505050"
     inkscape:document-units="mm"
     inkscape:zoom="0.73139029"
     inkscape:cx="174.32553"
     inkscape:cy="480.59156"
     inkscape:window-width="1920"
     inkscape:window-height="1017"
     inkscape:window-x="-8"
     inkscape:window-y="-8"
     inkscape:window-maximized="1"
     inkscape:current-layer="layer1" />
  <defs
     id="defs1" />
  <g
     inkscape:label="Layer 1"
     inkscape:groupmode="layer"
     id="layer1"
     transform="translate(-18.857219,-5.4750061)">
    <path
       style="color:#000000;fill:#ffffff;-inkscape-stroke:none"
       d="m 20,5.4746094 v 0.46875 14.5312496 H 35 V 5.4746094 Z m 0.9375,0.9375 h 13.125 V 19.537109 h -13.125 z"
       id="rect1" />
    <path
       style="color:#000000;fill:#ffffff;-inkscape-stroke:none"
       d="m 50,5.4746094 v 0.46875 14.5312496 H 65 V 5.4746094 Z m 0.9375,0.9375 h 13.125 V 19.537109 h -13.125 z"
       id="rect1-8" />
    <path
       style="color:#000000;fill:#ffffff;-inkscape-stroke:none"
       d="m 80,5.4746094 v 0.46875 14.5312496 H 95 V 5.4746094 Z m 0.9375,0.9375 h 13.125 V 19.537109 h -13.125 z"
       id="rect1-8-2" />
    <path
       style="color:#000000;fill:#ffffff;-inkscape-stroke:none"
       d="m 110,5.4746094 v 0.46875 14.5312496 h 15 V 5.4746094 Z m 0.9375,0.9375 h 13.125 V 19.537109 h -13.125 z"
       id="rect1-0" />
    <path
       style="color:#000000;fill:#ffffff;-inkscape-stroke:none"
       d="m 140,5.4746094 v 0.46875 14.5312496 h 15 V 5.4746094 Z m 0.9375,0.9375 h 13.125 V 19.537109 h -13.125 z"
       id="rect1-8-9" />
    <path
       style="color:#000000;fill:#ffffff;-inkscape-stroke:none"
       d="m 170,5.4746094 v 0.46875 14.5312496 h 15 V 5.4746094 Z m 0.9375,0.9375 h 13.125 V 19.537109 h -13.125 z"
       id="rect1-8-2-0" />
    <g
       id="path1-7">
      <path
         style="color:#000000;fill:#ffffff;fill-rule:evenodd;-inkscape-stroke:none"
         d="m 64.945312,12.419922 -0.0059,0.955078 12.707031,0.05664 0.0039,-0.955078 z"
         id="path26" />
      <g
         id="g23">
        <g
           id="path23">
          <path
             style="color:#000000;fill:#ffffff;fill-rule:evenodd;-inkscape-stroke:none"
             d="m 80.401156,12.966257 -4.136629,2.366604 0.02124,-4.769952 z"
             id="path24" />
          <path
             style="color:#000000;fill:#ffffff;fill-rule:evenodd;-inkscape-stroke:none"
             d="m 75.970703,10.009766 -0.02734,5.873047 5.09375,-2.914063 -0.476562,-0.277344 z m 0.630859,1.105468 3.164063,1.847657 -3.181641,1.820312 z"
             id="path25" />
        </g>
      </g>
    </g>
    <g
       id="path1-9">
      <path
         style="color:#000000;fill:#ffffff;fill-rule:evenodd;-inkscape-stroke:none"
         d="m 95.089844,12.419922 -0.0039,0.955078 12.705083,0.05664 0.004,-0.955078 z"
         id="path22" />
      <g
         id="g19">
        <g
           id="path19">
          <path
             style="color:#000000;fill:#ffffff;fill-rule:evenodd;-inkscape-stroke:none"
             d="m 110.54598,12.966265 -4.13663,2.366597 0.0212,-4.769953 z"
             id="path20" />
          <path
             style="color:#000000;fill:#ffffff;fill-rule:evenodd;-inkscape-stroke:none"
             d="m 106.11523,10.009766 -0.0254,5.873047 5.0918,-2.914063 -0.47461,-0.277344 z m 0.63086,1.105468 3.16407,1.847657 -3.18164,1.820312 z"
             id="path21" />
        </g>
      </g>
    </g>
    <g
       id="path1-7-5">
      <path
         style="color:#000000;fill:#ffffff;fill-rule:evenodd;-inkscape-stroke:none"
         d="m 125.0293,12.419922 -0.004,0.955078 12.70703,0.05664 0.004,-0.955078 z"
         id="path18" />
      <g
         id="g15">
        <g
           id="path15">
          <path
             style="color:#000000;fill:#ffffff;fill-rule:evenodd;-inkscape-stroke:none"
             d="m 140.48633,12.966265 -4.13663,2.366597 0.0212,-4.769953 z"
             id="path16" />
          <path
             style="color:#000000;fill:#ffffff;fill-rule:evenodd;-inkscape-stroke:none"
             d="m 136.05469,10.009766 -0.0254,5.873047 5.09179,-2.914063 -0.47461,-0.277344 z m 0.63281,1.105468 3.16406,1.847657 -3.18164,1.820312 z"
             id="path17" />
        </g>
      </g>
    </g>
    <g
       id="path1-8">
      <path
         style="color:#000000;fill:#ffffff;fill-rule:evenodd;-inkscape-stroke:none"
         d="m 154.31055,12.419922 -0.004,0.955078 12.70508,0.05664 0.006,-0.955078 z"
         id="path14" />
      <g
         id="g11">
        <g
           id="path11">
          <path
             style="color:#000000;fill:#ffffff;fill-rule:evenodd;-inkscape-stroke:none"
             d="m 169.76706,12.966257 -4.13663,2.366604 0.0212,-4.769952 z"
             id="path12" />
          <path
             style="color:#000000;fill:#ffffff;fill-rule:evenodd;-inkscape-stroke:none"
             d="m 165.33594,10.009766 -0.0254,5.873047 5.09179,-2.914063 -0.47461,-0.277344 z m 0.63086,1.105468 3.16601,1.847657 -3.18164,1.820312 z"
             id="path13" />
        </g>
      </g>
    </g>
    <g
       id="path2">
      <path
         style="color:#000000;fill:#ffffff;-inkscape-stroke:none"
         d="m 184.85547,12.974609 v 0.955079 h 8.54492 l -0.33789,7.458984 0.95312,0.04297 0.38282,-8.457032 z"
         id="path10" />
      <g
         id="g7">
        <g
           id="path7">
          <path
             style="color:#000000;fill:#ffffff;fill-rule:evenodd;-inkscape-stroke:none"
             d="m 193.53837,24.162871 -2.385,-4.12605 h 4.77 z"
             id="path8" />
          <path
             style="color:#000000;fill:#ffffff;fill-rule:evenodd;-inkscape-stroke:none"
             d="m 190.60156,19.71875 2.9375,5.080078 0.27539,-0.476562 2.66016,-4.603516 z m 1.10352,0.636719 h 3.66601 l -1.83203,3.171875 z"
             id="path9" />
        </g>
      </g>
    </g>
    <g
       id="path1-7-3">
      <path
         style="color:#000000;fill:#ffffff;fill-rule:evenodd;-inkscape-stroke:none"
         d="m 34.447266,12.419922 -0.0039,0.955078 12.705078,0.05664 0.0059,-0.955078 z"
         id="path6" />
      <g
         id="g2">
        <g
           id="path3">
          <path
             style="color:#000000;fill:#ffffff;fill-rule:evenodd;-inkscape-stroke:none"
             d="m 49.903795,12.966353 -4.136629,2.366604 0.02124,-4.769952 z"
             id="path4" />
          <path
             style="color:#000000;fill:#ffffff;fill-rule:evenodd;-inkscape-stroke:none"
             d="m 45.472656,10.009766 -0.02539,5.873047 5.091796,-2.914063 -0.474609,-0.277344 z m 0.63086,1.105468 3.166015,1.847657 -3.18164,1.820312 z"
             id="path5" />
        </g>
      </g>
    </g>
    <text
       xml:space="preserve"
       style="font-style:normal;font-variant:normal;font-weight:normal;font-stretch:normal;font-size:8.46667px;font-family:'Ink Free';-inkscape-font-specification:'Ink Free';fill:none;stroke:#ffffff;stroke-width:0.954;stroke-dasharray:none"
       x="18.978619"
       y="28.596092"
       id="text2"><tspan
         sodipodi:role="line"
         id="tspan2"
         style="fill:none;stroke:#ffffff;stroke-width:0.954"
         x="18.978619"
         y="28.596092">head</tspan></text>
    <text
       xml:space="preserve"
       style="font-style:normal;font-variant:normal;font-weight:normal;font-stretch:normal;font-size:8.46667px;font-family:'Ink Free';-inkscape-font-specification:'Ink Free';fill:none;stroke:#ffffff;stroke-width:0.954;stroke-dasharray:none"
       x="171.25436"
       y="28.59561"
       id="text2-8"><tspan
         sodipodi:role="line"
         id="tspan2-2"
         style="fill:none;stroke:#ffffff;stroke-width:0.954"
         x="171.25436"
         y="28.59561">tail</tspan></text>
  </g>
</svg>
