<?xml version="1.0" encoding="utf-8" ?>
<svg xmlns="http://www.w3.org/2000/svg" xmlns:ev="http://www.w3.org/2001/xml-events" xmlns:xlink="http://www.w3.org/1999/xlink" baseProfile="full" height="210" version="1.1" width="410">
  <defs/>
  <rect fill="#ff7f2a" height="34.48275862068966" stroke="white" stroke-width="2" width="20.0" x="5.0" y="170.51724137931035"/>
  <rect fill="#ff7f2a" height="48.275862068965516" stroke="white" stroke-width="2" width="20.0" x="25.0" y="156.72413793103448"/>
  <rect fill="#ff7f2a" height="55.172413793103445" stroke="white" stroke-width="2" width="20.0" x="45.0" y="149.82758620689657"/>
  <rect fill="#ff7f2a" height="62.06896551724138" stroke="white" stroke-width="2" width="20.0" x="65.0" y="142.9310344827586"/>
  <rect fill="#ff7f2a" height="75.86206896551724" stroke="white" stroke-width="2" width="20.0" x="85.0" y="129.13793103448276"/>
  <rect fill="#ff7f2a" height="82.75862068965517" stroke="white" stroke-width="2" width="20.0" x="105.0" y="122.24137931034483"/>
  <rect fill="#ff7f2a" height="89.65517241379311" stroke="white" stroke-width="2" width="20.0" x="125.0" y="115.34482758620689"/>
  <rect fill="#ff7f2a" height="96.55172413793103" stroke="white" stroke-width="2" width="20.0" x="145.0" y="108.44827586206897"/>
  <rect fill="#ff7f2a" height="103.44827586206897" stroke="white" stroke-width="2" width="20.0" x="165.0" y="101.55172413793103"/>
  <rect fill="#ff7f2a" height="124.13793103448276" stroke="white" stroke-width="2" width="20.0" x="185.0" y="80.86206896551724"/>
  <rect fill="#ff7f2a" height="131.0344827586207" stroke="white" stroke-width="2" width="20.0" x="205.0" y="73.9655172413793"/>
  <rect fill="#ff7f2a" height="144.82758620689654" stroke="white" stroke-width="2" width="20.0" x="225.0" y="60.17241379310346"/>
  <rect fill="#ff7f2a" height="151.72413793103448" stroke="white" stroke-width="2" width="20.0" x="245.0" y="53.27586206896552"/>
  <rect fill="#ff7f2a" height="158.6206896551724" stroke="white" stroke-width="2" width="20.0" x="265.0" y="46.37931034482759"/>
  <rect fill="#ff7f2a" height="165.51724137931035" stroke="white" stroke-width="2" width="20.0" x="285.0" y="39.48275862068965"/>
  <rect fill="#ff7f2a" height="172.41379310344828" stroke="white" stroke-width="2" width="20.0" x="305.0" y="32.586206896551715"/>
  <rect fill="#ff7f2a" height="179.31034482758622" stroke="white" stroke-width="2" width="20.0" x="325.0" y="25.68965517241378"/>
  <rect fill="#ff7f2a" height="186.20689655172413" stroke="white" stroke-width="2" width="20.0" x="345.0" y="18.793103448275872"/>
  <rect fill="#ff7f2a" height="193.10344827586206" stroke="white" stroke-width="2" width="20.0" x="365.0" y="11.896551724137936"/>
  <rect fill="#ff7f2a" height="200.0" stroke="white" stroke-width="2" width="20.0" x="385.0" y="5.0"/>
</svg>
