<?xml version="1.0" encoding="utf-8" ?>
<svg baseProfile="full" height="210" version="1.1" width="410" xmlns="http://www.w3.org/2000/svg" xmlns:ev="http://www.w3.org/2001/xml-events" xmlns:xlink="http://www.w3.org/1999/xlink"><defs /><rect fill="#ff7f2a" height="25.641025641025642" stroke="white" stroke-width="2" width="13.333333333333334" x="5.0" y="179.35897435897436" /><rect fill="#ff7f2a" height="30.76923076923077" stroke="white" stroke-width="2" width="13.333333333333334" x="18.333333333333336" y="174.23076923076923" /><rect fill="#ff7f2a" height="35.8974358974359" stroke="white" stroke-width="2" width="13.333333333333332" x="31.666666666666668" y="169.1025641025641" /><rect fill="#ff7f2a" height="41.02564102564103" stroke="white" stroke-width="2" width="13.333333333333336" x="45.0" y="163.97435897435898" /><rect fill="#ff7f2a" height="46.15384615384615" stroke="white" stroke-width="2" width="13.333333333333336" x="58.333333333333336" y="158.84615384615384" /><rect fill="#ff7f2a" height="51.282051282051285" stroke="white" stroke-width="2" width="13.333333333333329" x="71.66666666666667" y="153.71794871794873" /><rect fill="#ff7f2a" height="56.41025641025641" stroke="white" stroke-width="2" width="13.333333333333329" x="85.0" y="148.5897435897436" /><rect fill="#ff7f2a" height="61.53846153846154" stroke="white" stroke-width="2" width="13.333333333333343" x="98.33333333333333" y="143.46153846153845" /><rect fill="#ff7f2a" height="71.7948717948718" stroke="white" stroke-width="2" width="13.333333333333329" x="111.66666666666667" y="133.2051282051282" /><rect fill="#ff7f2a" height="76.92307692307692" stroke="white" stroke-width="2" width="13.333333333333343" x="125.0" y="128.0769230769231" /><rect fill="#ff7f2a" height="82.05128205128206" stroke="white" stroke-width="2" width="13.333333333333314" x="138.33333333333334" y="122.94871794871794" /><rect fill="#ff7f2a" height="87.17948717948718" stroke="white" stroke-width="2" width="13.333333333333343" x="151.66666666666666" y="117.82051282051282" /><rect fill="#ff7f2a" height="92.3076923076923" stroke="white" stroke-width="2" width="13.333333333333343" x="165.0" y="112.6923076923077" /><rect fill="#ff7f2a" height="97.43589743589743" stroke="white" stroke-width="2" width="13.333333333333314" x="178.33333333333334" y="107.56410256410257" /><rect fill="#ff7f2a" height="107.6923076923077" stroke="white" stroke-width="2" width="13.333333333333343" x="191.66666666666666" y="97.3076923076923" /><rect fill="#ff7f2a" height="112.82051282051282" stroke="white" stroke-width="2" width="13.333333333333343" x="205.0" y="92.17948717948718" /><rect fill="#ff7f2a" height="123.07692307692308" stroke="white" stroke-width="2" width="13.333333333333314" x="218.33333333333334" y="81.92307692307692" /><rect fill="#ff7f2a" height="128.2051282051282" stroke="white" stroke-width="2" width="13.333333333333343" x="231.66666666666666" y="76.7948717948718" /><rect fill="#ff7f2a" height="133.33333333333334" stroke="white" stroke-width="2" width="13.333333333333343" x="245.0" y="71.66666666666666" /><rect fill="#ff7f2a" height="138.46153846153845" stroke="white" stroke-width="2" width="13.333333333333343" x="258.33333333333337" y="66.53846153846155" /><rect fill="#ff7f2a" height="143.5897435897436" stroke="white" stroke-width="2" width="13.333333333333314" x="271.6666666666667" y="61.41025641025641" /><rect fill="#ff7f2a" height="148.71794871794873" stroke="white" stroke-width="2" width="13.333333333333314" x="285.0" y="56.28205128205127" /><rect fill="#ff7f2a" height="153.84615384615384" stroke="white" stroke-width="2" width="13.333333333333371" x="298.3333333333333" y="51.15384615384616" /><rect fill="#ff7f2a" height="158.97435897435898" stroke="white" stroke-width="2" width="13.333333333333314" x="311.6666666666667" y="46.02564102564102" /><rect fill="#ff7f2a" height="164.10256410256412" stroke="white" stroke-width="2" width="13.333333333333314" x="325.0" y="40.897435897435884" /><rect fill="#ff7f2a" height="169.23076923076923" stroke="white" stroke-width="2" width="13.333333333333371" x="338.3333333333333" y="35.769230769230774" /><rect fill="#ff7f2a" height="174.35897435897436" stroke="white" stroke-width="2" width="13.333333333333314" x="351.6666666666667" y="30.641025641025635" /><rect fill="#ff7f2a" height="179.48717948717947" stroke="white" stroke-width="2" width="13.333333333333314" x="365.0" y="25.512820512820525" /><rect fill="#ff7f2a" height="184.6153846153846" stroke="white" stroke-width="2" width="13.333333333333371" x="378.3333333333333" y="20.384615384615387" /><rect fill="#ff7f2a" height="200.0" stroke="white" stroke-width="2" width="13.333333333333314" x="391.6666666666667" y="5.0" /></svg>