<?xml version="1.0" encoding="UTF-8" standalone="no"?>
<!-- Created with Inkscape (http://www.inkscape.org/) -->

<svg
   width="155.74352mm"
   height="88.850403mm"
   viewBox="0 0 155.74352 88.850404"
   version="1.1"
   id="svg1"
   inkscape:version="1.3 (0e150ed6c4, 2023-07-21)"
   sodipodi:docname="euler-tour.svg"
   xmlns:inkscape="http://www.inkscape.org/namespaces/inkscape"
   xmlns:sodipodi="http://sodipodi.sourceforge.net/DTD/sodipodi-0.dtd"
   xmlns="http://www.w3.org/2000/svg"
   xmlns:svg="http://www.w3.org/2000/svg">
  <sodipodi:namedview
     id="namedview1"
     pagecolor="#505050"
     bordercolor="#eeeeee"
     borderopacity="1"
     inkscape:showpageshadow="0"
     inkscape:pageopacity="0"
     inkscape:pagecheckerboard="0"
     inkscape:deskcolor="#505050"
     inkscape:document-units="mm"
     inkscape:zoom="1.4485269"
     inkscape:cx="381.76716"
     inkscape:cy="203.31"
     inkscape:window-width="1920"
     inkscape:window-height="1009"
     inkscape:window-x="1912"
     inkscape:window-y="-8"
     inkscape:window-maximized="1"
     inkscape:current-layer="layer1" />
  <defs
     id="defs1">
    <inkscape:path-effect
       effect="bspline"
       id="path-effect4"
       is_visible="true"
       lpeversion="1.3"
       weight="33.333333"
       steps="2"
       helper_size="0"
       apply_no_weight="true"
       apply_with_weight="true"
       only_selected="false"
       uniform="false" />
    <inkscape:path-effect
       effect="spiro"
       id="path-effect3"
       is_visible="true"
       lpeversion="1" />
    <inkscape:path-effect
       effect="spiro"
       id="path-effect2"
       is_visible="true"
       lpeversion="1" />
  </defs>
  <g
     inkscape:label="Layer 1"
     inkscape:groupmode="layer"
     id="layer1"
     transform="translate(6.9791922,-15.664423)">
    <circle
       style="fill:#ffb86c;fill-opacity:1;stroke:#ffffff;stroke-width:0.764098"
       id="path1"
       cx="100.35683"
       cy="27.5"
       r="7.1179509" />
    <text
       xml:space="preserve"
       style="font-size:7.05556px;line-height:1.7;font-family:Consolas;-inkscape-font-specification:Consolas;text-align:center;text-anchor:middle;fill:#000000;stroke:none;stroke-width:1"
       x="100.5394"
       y="29.796692"
       id="text1"><tspan
         sodipodi:role="line"
         id="tspan1"
         style="text-align:center;text-anchor:middle;fill:#000000;stroke:none;stroke-width:1"
         x="100.5394"
         y="29.796692">17</tspan></text>
    <circle
       style="fill:#ffb86c;fill-opacity:1;stroke:#ffffff;stroke-width:0.764098"
       id="path1-3"
       cx="44.502666"
       cy="47.5"
       r="7.1179509" />
    <text
       xml:space="preserve"
       style="font-size:7.05556px;line-height:1.7;font-family:Consolas;-inkscape-font-specification:Consolas;text-align:center;text-anchor:middle;fill:#000000;stroke:none;stroke-width:1"
       x="44.315681"
       y="49.796692"
       id="text1-0"><tspan
         sodipodi:role="line"
         id="tspan1-7"
         style="text-align:center;text-anchor:middle;fill:#000000;stroke:none;stroke-width:1"
         x="44.315681"
         y="49.796692">4</tspan></text>
    <circle
       style="fill:#ffb86c;fill-opacity:1;stroke:#ffffff;stroke-width:0.764098"
       id="circle1"
       cx="135.51961"
       cy="47.5"
       r="7.1179509" />
    <text
       xml:space="preserve"
       style="font-size:7.05556px;line-height:1.7;font-family:Consolas;-inkscape-font-specification:Consolas;text-align:center;text-anchor:middle;fill:#000000;stroke:none;stroke-width:1"
       x="135.77432"
       y="49.796692"
       id="text2"><tspan
         sodipodi:role="line"
         id="tspan2"
         style="text-align:center;text-anchor:middle;fill:#000000;stroke:none;stroke-width:1"
         x="135.77432"
         y="49.796692">20</tspan></text>
    <circle
       style="fill:#ffb86c;fill-opacity:1;stroke:#ffffff;stroke-width:0.764098"
       id="circle2"
       cx="21.219311"
       cy="67.5"
       r="7.1179509" />
    <text
       xml:space="preserve"
       style="font-size:7.05556px;line-height:1.7;font-family:Consolas;-inkscape-font-specification:Consolas;text-align:center;text-anchor:middle;fill:#000000;stroke:none;stroke-width:1"
       x="21.27038"
       y="69.796692"
       id="text3"><tspan
         sodipodi:role="line"
         id="tspan3"
         style="text-align:center;text-anchor:middle;fill:#000000;stroke:none;stroke-width:1"
         x="21.27038"
         y="69.796692">2</tspan></text>
    <circle
       style="fill:#ffb86c;fill-opacity:1;stroke:#ffffff;stroke-width:0.764098"
       id="circle3"
       cx="65.140182"
       cy="67.5"
       r="7.1179509" />
    <text
       xml:space="preserve"
       style="font-size:7.05556px;line-height:1.7;font-family:Consolas;-inkscape-font-specification:Consolas;text-align:center;text-anchor:middle;fill:#000000;stroke:none;stroke-width:1"
       x="65.239487"
       y="69.796692"
       id="text4"><tspan
         sodipodi:role="line"
         id="tspan4"
         style="text-align:center;text-anchor:middle;fill:#000000;stroke:none;stroke-width:1"
         x="65.239487"
         y="69.796692">8</tspan></text>
    <circle
       style="fill:#ffb86c;fill-opacity:1;stroke:#ffffff;stroke-width:0.764098"
       id="circle4"
       cx="114.88219"
       cy="67.5"
       r="7.1179509" />
    <text
       xml:space="preserve"
       style="font-size:7.05556px;line-height:1.7;font-family:Consolas;-inkscape-font-specification:Consolas;text-align:center;text-anchor:middle;fill:#000000;stroke:none;stroke-width:1"
       x="114.99514"
       y="69.796692"
       id="text5"><tspan
         sodipodi:role="line"
         id="tspan5"
         style="text-align:center;text-anchor:middle;fill:#000000;stroke:none;stroke-width:1"
         x="114.99514"
         y="69.796692">19</tspan></text>
    <circle
       style="fill:#ffb86c;fill-opacity:1;stroke:#ffffff;stroke-width:0.764098"
       id="circle5"
       cx="7.9901462"
       cy="87.5"
       r="7.1179509" />
    <text
       xml:space="preserve"
       style="font-size:7.05556px;line-height:1.7;font-family:Consolas;-inkscape-font-specification:Consolas;text-align:center;text-anchor:middle;fill:#000000;stroke:none;stroke-width:1"
       x="7.3438792"
       y="89.796692"
       id="text6"><tspan
         sodipodi:role="line"
         id="tspan6"
         style="text-align:center;text-anchor:middle;fill:#000000;stroke:none;stroke-width:1"
         x="7.3438792"
         y="89.796692">-1</tspan></text>
    <circle
       style="fill:#ffb86c;fill-opacity:1;stroke:#ffffff;stroke-width:0.764098"
       id="circle6"
       cx="50.852673"
       cy="87.5"
       r="7.1179509" />
    <text
       xml:space="preserve"
       style="font-size:7.05556px;line-height:1.7;font-family:Consolas;-inkscape-font-specification:Consolas;text-align:center;text-anchor:middle;fill:#000000;stroke:none;stroke-width:1"
       x="50.972645"
       y="89.796692"
       id="text7"><tspan
         sodipodi:role="line"
         id="tspan7"
         style="text-align:center;text-anchor:middle;fill:#000000;stroke:none;stroke-width:1"
         x="50.972645"
         y="89.796692">6</tspan></text>
    <circle
       style="fill:#ffb86c;fill-opacity:1;stroke:#ffffff;stroke-width:0.764098"
       id="circle7"
       cx="87.894371"
       cy="87.5"
       r="7.1179509" />
    <text
       xml:space="preserve"
       style="font-size:7.05556px;line-height:1.7;font-family:Consolas;-inkscape-font-specification:Consolas;text-align:center;text-anchor:middle;fill:#000000;stroke:none;stroke-width:1"
       x="87.947166"
       y="89.796692"
       id="text8"><tspan
         sodipodi:role="line"
         id="tspan8"
         style="text-align:center;text-anchor:middle;fill:#000000;stroke:none;stroke-width:1"
         x="87.947166"
         y="89.796692">12</tspan></text>
    <path
       style="fill:none;fill-rule:evenodd;stroke:#ffffff;stroke-width:1;stroke-linecap:butt;stroke-linejoin:miter;stroke-dasharray:none;stroke-opacity:1"
       d="m 17.292484,73.43662 -5.375511,8.12676"
       id="path13"
       inkscape:connector-type="polyline"
       inkscape:connector-curvature="0"
       inkscape:connection-start="#circle2"
       inkscape:connection-end="#circle5" />
    <path
       style="fill:none;fill-rule:evenodd;stroke:#ffffff;stroke-width:1;stroke-linecap:butt;stroke-linejoin:miter;stroke-dasharray:none;stroke-opacity:1"
       d="M 39.103284,52.137976 26.618693,62.862024"
       id="path14"
       inkscape:connector-type="polyline"
       inkscape:connector-curvature="0"
       inkscape:connection-start="#path1-3"
       inkscape:connection-end="#circle2" />
    <path
       style="fill:none;fill-rule:evenodd;stroke:#ffffff;stroke-width:1;stroke-linecap:butt;stroke-linejoin:miter;stroke-dasharray:none;stroke-opacity:1"
       d="M 93.655545,29.899564 51.203948,45.100436"
       id="path15"
       inkscape:connector-type="polyline"
       inkscape:connector-curvature="0"
       inkscape:connection-start="#path1"
       inkscape:connection-end="#path1-3" />
    <path
       style="fill:none;fill-rule:evenodd;stroke:#ffffff;stroke-width:1;stroke-linecap:butt;stroke-linejoin:miter;stroke-dasharray:none;stroke-opacity:1"
       d="m 106.54392,31.019115 22.78859,12.96177"
       id="path16"
       inkscape:connector-type="polyline"
       inkscape:connector-curvature="0"
       inkscape:connection-start="#path1"
       inkscape:connection-end="#circle1" />
    <path
       style="fill:none;fill-rule:evenodd;stroke:#ffffff;stroke-width:1;stroke-linecap:butt;stroke-linejoin:miter;stroke-dasharray:none;stroke-opacity:1"
       d="M 130.40821,52.453519 119.99358,62.546481"
       id="path17"
       inkscape:connector-type="polyline"
       inkscape:connector-curvature="0"
       inkscape:connection-start="#circle1"
       inkscape:connection-end="#circle4" />
    <path
       style="fill:none;fill-rule:evenodd;stroke:#ffffff;stroke-width:1;stroke-linecap:butt;stroke-linejoin:miter;stroke-dasharray:none;stroke-opacity:1"
       d="M 49.614071,52.453508 60.028778,62.546492"
       id="path20"
       inkscape:connector-type="polyline"
       inkscape:connector-curvature="0"
       inkscape:connection-start="#path1-3"
       inkscape:connection-end="#circle3" />
    <path
       style="fill:none;fill-rule:evenodd;stroke:#ffffff;stroke-width:1;stroke-linecap:butt;stroke-linejoin:miter;stroke-dasharray:none;stroke-opacity:1"
       d="m 70.48641,72.199115 12.061734,10.60177"
       id="path21"
       inkscape:connector-type="polyline"
       inkscape:connector-curvature="0"
       inkscape:connection-start="#circle3"
       inkscape:connection-end="#circle7" />
    <path
       style="fill:none;fill-rule:evenodd;stroke:#ffffff;stroke-width:1;stroke-linecap:butt;stroke-linejoin:miter;stroke-dasharray:none;stroke-opacity:1"
       d="m 61.00269,73.291761 -6.012525,8.416478"
       id="path24"
       inkscape:connector-type="polyline"
       inkscape:connector-curvature="0"
       inkscape:connection-start="#circle3"
       inkscape:connection-end="#circle6" />
    <path
       style="fill:none;fill-opacity:0.67364;stroke:#bd93f9;stroke-width:1;stroke-opacity:1;stroke-dasharray:2,1;stroke-dashoffset:0"
       d="m 1.2488517,73.335531 c -3.7562777,6.051781 -4.828632,9.498634 -5.8332446,12.938671 -1.0046126,3.440037 -1.3090411,4.840408 -1.5221405,5.723249 -0.2130994,0.88284 -0.3348711,1.248155 -0.3653138,1.917896 -0.030443,0.669742 0.030443,1.643911 0.2739854,2.800738 0.2435426,1.156827 0.6697411,2.496309 0.9437272,3.318265 0.2739861,0.82196 0.3957585,1.12639 0.5479733,1.30904 0.1522149,0.18266 0.3348667,0.24354 1.3699221,0.60886 1.0350553,0.36531 2.92250808,1.03506 4.505535,1.43081 1.5830269,0.39576 2.8616248,0.51753 5.0839494,0.45664 2.2223245,-0.0609 5.3883768,-0.30443 7.0931758,-0.45664 1.704798,-0.15222 1.948336,-0.2131 2.130992,-0.33487 0.182656,-0.12177 0.304428,-0.30443 0.639299,-0.60886 0.33487,-0.30442 0.882846,-0.73063 1.857016,-1.70479 0.974169,-0.974173 2.374537,-2.496314 3.348706,-3.805355 0.97417,-1.309041 1.52214,-2.404982 1.857011,-3.135609 0.334871,-0.730627 0.456641,-1.09594 0.608855,-1.400369 0.152214,-0.304428 0.334871,-0.54797 0.487085,-0.821956 0.152215,-0.273986 0.273985,-0.578414 0.456642,-0.882842 0.182657,-0.304428 0.426199,-0.608856 0.791513,-1.126383 0.365313,-0.517528 0.852398,-1.248156 1.339483,-1.917897 0.487084,-0.669741 0.974169,-1.278597 1.552583,-2.222325 0.578414,-0.943727 1.248156,-2.222323 1.674355,-2.983393 0.4262,-0.76107 0.608858,-1.004613 0.8524,-1.461255 0.243542,-0.456642 0.54797,-1.126384 1.187268,-2.404982 0.639299,-1.278598 1.613469,-3.166054 2.465867,-4.809965 0.852398,-1.64391 1.583027,-3.044281 2.161439,-4.170663 0.578413,-1.126383 1.004614,-1.978783 1.826569,-2.831181 0.821955,-0.852397 2.039668,-1.704796 2.831181,-2.191881 0.791513,-0.487085 1.156825,-0.608857 1.704796,-0.669743 0.547971,-0.06089 1.278599,-0.06089 1.704798,-1e-6 0.426199,0.06089 0.54797,0.182658 0.76107,0.304429 0.213099,0.121772 0.517529,0.243543 1.004613,0.517528 0.487085,0.273986 1.156826,0.700185 1.552583,0.943728 0.395758,0.243543 0.517528,0.304427 0.578414,0.54797 0.06089,0.243543 0.06089,0.669742 0.06089,1.126384 0,0.456642 0,0.943726 -0.547971,1.978781 -0.54797,1.035056 -1.643912,2.618082 -2.404982,3.774909 -0.761071,1.156827 -1.18727,1.887453 -1.552584,2.435424 -0.365313,0.54797 -0.669742,0.913285 -1.30904,1.917898 -0.639299,1.004612 -1.613469,2.648524 -2.678966,4.261991 -1.065498,1.613468 -2.222326,3.196494 -2.952953,4.322878 -0.730627,1.126384 -1.035055,1.796126 -1.369926,3.257381 -0.33487,1.461254 -0.700184,3.714022 -0.821956,5.479704 -0.121771,1.765682 0,3.044281 0.365314,4.079336 0.365314,1.035055 0.974171,1.826569 1.583027,2.435419 0.608856,0.60886 1.217711,1.03506 1.887452,1.43082 0.669741,0.39575 1.400372,0.76107 1.917899,0.94372 0.517527,0.18266 0.821954,0.18266 1.095941,0.2131 0.273986,0.0304 0.517526,0.0913 1.369924,0.12178 0.852398,0.0304 2.313652,0.0304 4.718634,0 2.404982,-0.0304 5.753691,-0.0913 7.671588,-0.33488 1.917897,-0.24354 2.404982,-0.66974 2.892067,-1.03505 0.487086,-0.36532 0.974168,-0.66974 1.278597,-0.91329 0.30443,-0.24354 0.426198,-0.42619 0.791513,-0.94372 0.365314,-0.51753 0.97417,-1.369928 1.461255,-2.252769 0.487085,-0.882842 0.852399,-1.796126 1.18727,-2.648525 0.33487,-0.852398 0.639298,-1.64391 0.88284,-2.557195 0.243543,-0.913285 0.426199,-1.94834 0.578413,-2.800739 0.152214,-0.852399 0.273985,-1.522138 0.608856,-2.648523 0.334871,-1.126384 0.882841,-2.70941 1.309042,-3.500923 0.4262,-0.791513 0.730627,-0.791513 1.491697,-0.791513 0.76107,0 1.978783,0 2.58764,0.06089 0.608856,0.06089 0.608856,0.182658 0.76107,0.578414 0.152214,0.395756 0.456642,1.065497 0.821955,2.404981 0.365313,1.339484 0.791511,3.348709 1.217711,5.083949 0.426199,1.73524 0.852398,3.196494 1.156827,4.23155 0.304428,1.035056 0.487085,1.64391 0.730627,2.252766 0.243543,0.608857 0.54797,1.217713 0.730626,1.613468 0.182656,0.395753 0.243543,0.578413 0.852401,0.974173 0.608857,0.39576 1.76568,1.00461 2.678965,1.43081 0.913285,0.4262 1.583028,0.66974 3.287824,0.8524 1.704796,0.18265 4.444649,0.30443 6.849631,0.27398 2.404982,-0.0304 4.475094,-0.21309 6.058119,-0.45664 1.583025,-0.24354 2.678966,-0.54797 3.379151,-0.97417 0.700187,-0.4262 1.004607,-0.97417 1.522137,-2.130997 0.51753,-1.156825 1.24816,-2.922506 1.7048,-4.231546 0.45665,-1.30904 0.6393,-2.16144 0.73063,-3.105167 0.0913,-0.943727 0.0913,-1.978782 0.0913,-2.770295 0,-0.791513 0,-1.339484 -0.39576,-2.58764 -0.39575,-1.248155 -1.18727,-3.196496 -2.00922,-5.083948 C 100.1693,80.094315 99.3169,78.267745 98.555829,76.897819 97.794758,75.527892 97.125018,74.61461 96.242177,73.336012 95.359335,72.057414 94.263394,70.413502 93.56321,69.469776 92.863026,68.526049 92.558596,68.282505 92.284611,68.00852 92.010626,67.734534 91.767084,67.430108 91.249557,66.821251 90.732029,66.212395 89.940516,65.29911 89.422988,64.690254 88.905461,64.081398 88.661919,63.776971 87.718191,63.107229 86.774463,62.437486 85.130551,61.40243 83.517084,60.397818 81.903616,59.393207 80.32059,58.419037 78.768007,57.597081 c -1.552582,-0.821955 -3.074725,-1.491698 -4.048894,-1.94834 -0.974169,-0.456642 -1.400369,-0.700185 -1.765683,-0.852398 -0.365315,-0.152214 -0.669741,-0.2131 -1.217711,-0.4262 -0.547971,-0.213099 -1.339484,-0.578413 -2.100554,-0.913284 -0.761071,-0.334871 -1.491697,-0.639299 -2.283211,-1.400369 -0.791513,-0.76107 -1.643911,-1.978782 -0.913283,-3.166051 0.730628,-1.18727 3.04428,-2.344096 7.322288,-3.498261 4.278009,-1.154165 10.644907,-2.328642 15.086586,-2.931335 4.441679,-0.602692 7.120646,-0.663577 9.616956,-0.724462 2.496309,-0.06089 4.809959,-0.121772 6.727859,-0.09133 1.9179,0.03044 3.44004,0.152213 4.35332,0.213098 0.91329,0.06089 1.21771,0.06089 1.64391,0.152215 0.4262,0.09133 0.97417,0.273985 1.52214,0.456641 0.54797,0.182657 1.09594,0.365312 1.73524,0.943725 0.6393,0.578413 1.36993,1.552584 1.12639,2.922513 -0.24355,1.369928 -1.46126,3.13561 -2.52675,4.231549 -1.0655,1.095939 -1.97879,1.522141 -2.9834,2.161438 -1.00461,0.639298 -2.10055,1.491695 -3.07472,2.252765 -0.97417,0.76107 -1.82657,1.430814 -2.3441,1.948343 -0.51753,0.51753 -0.70018,0.88284 -0.97417,1.430811 -0.27398,0.547971 -0.6393,1.278599 -0.88284,2.58764 -0.24354,1.309041 -0.36532,3.196494 -0.33487,4.870849 0.0304,1.674355 0.2131,3.135609 0.39576,4.048891 0.18266,0.913282 0.36531,1.278599 0.70018,2.039669 0.33487,0.76107 0.82196,1.917899 1.58303,2.739853 0.76106,0.821955 1.79612,1.30904 3.59224,1.978782 1.79613,0.669742 4.35332,1.522141 6.7606,1.704302 2.40727,0.182161 4.65371,-0.303555 5.90274,-0.608172 1.24903,-0.304618 1.49257,-0.426389 1.73612,-0.517718 0.24354,-0.09133 0.48708,-0.152215 0.70018,-0.273986 0.2131,-0.121771 0.39575,-0.304425 0.82195,-0.547967 0.4262,-0.243542 1.09594,-0.54797 1.55258,-0.791513 0.45665,-0.243544 0.70019,-0.426201 1.03506,-0.608858 0.33487,-0.182657 0.76107,-0.365314 1.18727,-0.669742 0.4262,-0.304428 0.8524,-0.730626 1.4917,-1.400368 0.6393,-0.669743 1.49169,-1.583025 2.34409,-2.618081 0.8524,-1.035056 1.7048,-2.191883 2.49631,-3.287824 0.79152,-1.095941 1.52214,-2.130993 2.5572,-3.196494 1.03506,-1.065501 2.37454,-2.161437 3.74447,-3.379153 1.36993,-1.217716 2.77028,-2.557187 3.89667,-3.92712 1.12639,-1.369934 1.97878,-2.770297 2.46587,-4.01845 0.48709,-1.248153 0.60889,-2.344373 0.73064,-3.683516 0.12174,-1.339144 0.24323,-2.918538 -0.15354,-5.024445 -0.39676,-2.105908 -1.30773,-4.717323 -1.82525,-6.209017 -0.51753,-1.491694 -0.6393,-1.857008 -1.24816,-2.709406 -0.60885,-0.852397 -1.7048,-2.191884 -4.90129,-4.444651 -3.1965,-2.252768 -8.49354,-5.418817 -11.99447,-7.275829 -3.50092,-1.857012 -5.20571,-2.404981 -6.60608,-2.892065 -1.40037,-0.487085 -2.49631,-0.913283 -3.89668,-1.339483 -1.40037,-0.4262 -3.10517,-0.8524 -4.38377,-1.156828 -1.27859,-0.304427 -2.13099,-0.487085 -2.58764,-0.608861 -0.45665,-0.121775 -0.51752,-0.182651 -0.88284,-0.27398 -0.36531,-0.09133 -1.03505,-0.213101 -3.44004,-0.365315 -2.40498,-0.152214 -6.545196,-0.33487 -10.228776,-0.33487 -3.683579,0 -6.910517,0.182656 -13.15207,1.552798 -6.241553,1.370141 -15.49255,3.926337 -21.308156,5.844519 -5.815606,1.918181 -8.190143,3.196778 -10.016712,4.140505 -1.826568,0.943728 -3.105167,1.552584 -4.627307,2.465869 -1.52214,0.913284 -3.287822,2.130996 -4.535978,2.983394 -1.248155,0.852399 -1.97878,1.339482 -3.044279,1.978781 -1.065498,0.6393 -2.465869,1.430813 -3.470481,2.130998 -1.004612,0.700184 -1.613469,1.30904 -2.49631,2.039667 -0.88284,0.730627 -2.039667,1.583026 -3.013836,2.374539 -0.97417,0.791513 -1.765684,1.522141 -2.404983,2.100555 -0.6393,0.578413 -1.126384,1.004612 -2.404982,2.465866 -1.278597,1.461255 -3.348707,3.957564 -5.87546,6.727859 -2.526753,2.770296 -4.112777,4.388688 -9.074665,9.082365 -4.9618877,4.693677 -5.5682856,5.231611 -9.3245633,11.283392 z"
       id="path2"
       inkscape:path-effect="#path-effect4"
       inkscape:original-d="m -0.17018642,71.874756 c -2.33723948,7.512556 -3.40959418,10.959409 -5.11439128,16.439115 -0.3044281,1.400368 -0.6088561,2.800739 -0.9132841,4.201107 -0.1217713,0.365313 -0.2435425,0.730628 -0.3653137,1.095941 0.060886,0.97417 0.1217712,1.948339 0.1826568,2.922508 0.4261993,1.339485 0.8523985,2.678967 1.2785978,4.018453 0.1217712,0.30443 0.2435425,0.60886 0.3653137,0.91328 0.1826568,0.0609 0.3653136,0.12177 0.5479705,0.18266 1.8874539,0.66974 3.77490768,1.33948 5.6623615,2.00923 1.2785979,0.12177 2.5571958,0.24354 3.8357934,0.36531 3.1660518,-0.24354 6.3321038,-0.48709 9.4981548,-0.73063 0.243543,-0.0609 0.487085,-0.12177 0.730628,-0.18266 0.121771,-0.18265 0.243542,-0.36531 0.365313,-0.54797 0.547971,-0.42619 1.095941,-0.8524 1.643912,-1.27859 1.400369,-1.522145 2.800738,-3.044285 4.201107,-4.566425 0.547971,-1.095941 1.095941,-2.191882 1.643912,-3.287823 0.121772,-0.365313 0.243541,-0.730626 0.365313,-1.095942 0.182657,-0.243541 0.365312,-0.487084 0.54797,-0.730625 0.121772,-0.30443 0.243544,-0.608857 0.365313,-0.913286 0.243544,-0.304427 0.487087,-0.608854 0.730628,-0.913284 0.487085,-0.730626 0.97417,-1.461254 1.461254,-2.191882 0.487085,-0.608854 0.97417,-1.217711 1.461254,-1.826567 0.669743,-1.278599 1.339485,-2.557195 2.009228,-3.835794 0.182655,-0.243541 0.365313,-0.487085 0.54797,-0.730626 0.304427,-0.669742 0.608854,-1.339485 0.913284,-2.009227 0.974169,-1.887453 1.948339,-3.774909 2.922508,-5.662361 0.730628,-1.400369 1.461257,-2.800739 2.191882,-4.201107 0.426199,-0.852398 0.8524,-1.704798 1.278599,-2.557196 1.217711,-0.852397 2.435424,-1.704797 3.653137,-2.557195 0.365313,-0.121772 0.730625,-0.243544 1.095941,-0.365315 0.730626,0 1.461254,0 2.191882,0 0.121769,0.121771 0.243541,0.243543 0.365313,0.365315 0.304427,0.121772 0.608857,0.243541 0.913284,0.365313 0.669742,0.426199 1.339484,0.852397 2.009224,1.278599 0.121772,0.06089 0.243544,0.121769 0.365316,0.182655 0,0.426201 0,0.8524 0,1.278599 0,0.487085 0,0.974169 0,1.461254 -1.095941,1.583026 -2.191883,3.166052 -3.287824,4.749078 -0.426199,0.730628 -0.8524,1.461254 -1.278599,2.191882 -0.304427,0.365313 -0.608856,0.730628 -0.913283,1.095941 -0.97417,1.643912 -1.948339,3.287824 -2.922508,4.931733 -1.156827,1.583026 -2.313655,3.166052 -3.470482,4.749078 -0.304427,0.669742 -0.608856,1.339484 -0.913283,2.009227 -0.365313,2.252766 -0.730628,4.505534 -1.095941,6.758302 0.121771,1.278596 0.243543,2.557195 0.365313,3.835792 0.608856,0.791514 1.217713,1.583027 1.826569,2.374537 0.608857,0.4262 1.217713,0.8524 1.826567,1.2786 0.730628,0.36531 1.461257,0.73063 2.191882,1.09594 0.30443,0 0.608857,0 0.913284,0 0.243543,0.0609 0.487087,0.12177 0.730628,0.18266 1.461254,0 2.922508,0 4.383765,0 3.348707,-0.0609 6.697416,-0.12177 10.046126,-0.18266 0.487084,-0.4262 0.974169,-0.8524 1.461254,-1.2786 0.487084,-0.30443 0.974169,-0.60885 1.461254,-0.91328 0.121772,-0.18266 0.243544,-0.36531 0.365313,-0.54797 0.608856,-0.8524 1.217713,-1.704798 1.826569,-2.557195 0.365313,-0.913286 0.730629,-1.82657 1.095941,-2.739853 0.304427,-0.791515 0.608857,-1.583026 0.913284,-2.37454 0.182658,-1.035056 0.365313,-2.070111 0.54797,-3.105166 0.121772,-0.669743 0.243544,-1.339482 0.365313,-2.009225 0.547971,-1.583026 1.095942,-3.166052 1.643912,-4.749078 0.30443,0 0.608857,0 0.913284,0 1.217713,0 2.435426,0 3.653139,0 0,0.121772 0,0.243544 0,0.365313 0.304427,0.669743 0.608854,1.339485 0.913283,2.009225 0.426199,2.009227 0.852398,4.018452 1.278596,6.027677 0.426202,1.461254 0.852401,2.922508 1.278599,4.383764 0.182658,0.608857 0.365313,1.217711 0.547971,1.826567 0.304427,0.608857 0.608856,1.217713 0.913283,1.826571 0.06089,0.18265 0.121772,0.36531 0.182658,0.54797 1.156827,0.60886 2.313652,1.21771 3.470479,1.82657 0.669742,0.24354 1.339485,0.48708 2.009224,0.73062 2.739853,0.12178 5.479706,0.24355 8.219559,0.36532 2.070111,-0.18266 4.140222,-0.36532 6.210332,-0.54797 1.095941,-0.30443 2.191882,-0.60886 3.287824,-0.91329 0.30443,-0.54797 0.60886,-1.09594 0.91328,-1.64391 0.73063,-1.765682 1.46126,-3.531363 2.19189,-5.297047 0.18265,-0.852397 0.36531,-1.704797 0.54797,-2.557195 0,-1.035055 0,-2.07011 0,-3.105166 0,-0.54797 0,-1.095941 0,-1.643911 -0.79152,-1.948339 -1.58303,-3.896681 -2.37454,-5.845019 -0.8524,-1.826567 -1.704799,-3.653137 -2.557199,-5.479704 -0.669743,-0.913286 -1.339482,-1.826569 -2.009225,-2.739853 -1.095941,-1.643911 -2.191882,-3.287823 -3.287824,-4.931735 -0.304426,-0.243541 -0.608856,-0.487085 -0.913283,-0.730626 -0.243544,-0.304429 -0.487085,-0.608856 -0.730628,-0.913286 -0.791512,-0.913283 -1.583026,-1.826567 -2.374538,-2.739853 -0.243543,-0.304427 -0.487084,-0.608854 -0.730628,-0.913283 -1.643912,-1.035056 -3.287824,-2.070111 -4.931733,-3.105166 -1.583026,-0.974169 -3.166052,-1.948339 -4.749077,-2.922508 -1.52214,-0.669743 -3.044283,-1.339485 -4.566423,-2.009227 -0.426199,-0.243541 -0.852398,-0.487085 -1.278596,-0.730626 -0.30443,-0.06089 -0.608857,-0.121772 -0.913286,-0.182658 -0.791512,-0.365313 -1.583026,-0.730626 -2.374538,-1.095941 -0.730628,-0.304427 -1.461254,-0.608857 -2.191882,-0.913284 -0.852398,-1.217713 -1.704798,-2.435423 -2.557196,-3.653136 2.313655,-1.156827 4.627306,-2.313654 6.94096,-3.470479 6.236571,-1.182906 12.769771,-1.455852 18.813653,-3.470481 2.678967,-0.06088 5.357934,-0.121772 8.036901,-0.182655 2.313652,-0.06089 4.627302,-0.121772 6.940962,-0.182658 1.52214,0.121772 3.04428,0.243541 4.56642,0.365313 0.30443,0 0.60885,0 0.91328,0 0.54797,0.182658 1.09594,0.365313 1.64391,0.547971 0.54797,0.182657 1.09594,0.365312 1.64392,0.54797 0.73062,0.97417 1.46125,1.948339 2.19188,2.922511 -1.21772,1.765681 -2.43543,3.531365 -3.65314,5.297046 -0.91328,0.426201 -1.82657,0.8524 -2.73985,1.278598 -1.09594,0.852398 -2.19188,1.704798 -3.28783,2.557196 -0.85239,0.669742 -1.70479,1.339485 -2.55719,2.009224 -0.18266,0.365316 -0.36531,0.730629 -0.54797,1.095942 -0.36531,0.730628 -0.73063,1.461254 -1.09594,2.191882 -0.12177,1.887455 -0.24354,3.774908 -0.36532,5.662361 0.18266,1.461257 0.36532,2.922511 0.54798,4.383765 0.18265,0.365313 0.36531,0.730628 0.54797,1.095941 0.48708,1.156827 0.97417,2.313654 1.46125,3.470479 1.03505,0.487085 2.07011,0.97417 3.10516,1.461255 2.5572,0.852399 5.11439,1.704798 7.67159,2.557197 2.21014,-0.706445 4.4691,-1.134225 6.75831,-1.461257 0.24354,-0.121769 0.48708,-0.243541 0.73062,-0.365313 0.24355,-0.06089 0.48709,-0.121772 0.73063,-0.182658 0.18266,-0.182655 0.36531,-0.365313 0.54797,-0.547968 0.66974,-0.304429 1.33948,-0.608856 2.00923,-0.913286 0.24354,-0.182655 0.48708,-0.365313 0.73062,-0.54797 0.4262,-0.182655 0.8524,-0.365313 1.2786,-0.547971 0.4262,-0.426199 0.8524,-0.852397 1.2786,-1.278596 0.8524,-0.913284 1.70479,-1.82657 2.55719,-2.739853 0.8524,-1.156827 1.7048,-2.313654 2.5572,-3.470479 0.73063,-1.035055 1.46125,-2.07011 2.19188,-3.105168 1.33949,-1.095942 2.67897,-2.191879 4.01846,-3.287823 1.40037,-1.339486 2.80072,-2.678959 4.20109,-4.018448 0.85241,-1.400375 1.7048,-2.800741 2.5572,-4.201109 0.12178,-1.095938 0.24358,-2.192158 0.36533,-3.287821 0.12174,-1.582624 0.24323,-3.162018 0.36531,-4.749079 -0.91562,-2.624752 -1.82658,-5.236167 -2.73986,-7.854243 -0.12177,-0.365314 -0.24354,-0.730628 -0.36531,-1.095941 -1.09594,-1.339484 -2.19189,-2.678967 -3.28783,-4.018451 -5.29705,-3.166051 -10.59409,-6.332103 -15.89114,-9.498155 -1.7048,-0.54797 -3.40959,-1.095941 -5.11439,-1.643911 -1.09594,-0.426199 -2.19188,-0.852399 -3.28783,-1.278598 -1.70479,-0.426199 -3.40959,-0.852399 -5.11439,-1.278598 -0.85239,-0.182657 -1.70479,-0.365313 -2.55719,-0.54797 -0.0609,-0.06089 -0.12177,-0.121772 -0.18266,-0.182657 -0.66974,-0.121771 -1.33948,-0.243543 -2.00922,-0.365314 -4.14023,-0.182657 -8.280446,-0.365313 -12.420667,-0.54797 -3.226938,0.182657 -6.453876,0.365313 -9.680813,0.54797 -9.471747,1.777438 -18.711325,4.374961 -27.763838,7.671587 -2.37454,1.278598 -4.749077,2.557196 -7.123618,3.835794 -1.278596,0.608856 -2.557195,1.217712 -3.835791,1.826568 -1.765684,1.217712 -3.531367,2.435424 -5.297048,3.653136 -0.730629,0.487085 -1.461254,0.97417 -2.191883,1.461255 -1.400368,0.791513 -2.800739,1.583026 -4.201107,2.374539 -0.608856,0.608856 -1.217713,1.217712 -1.826569,1.826568 -1.156825,0.852399 -2.313652,1.704797 -3.470479,2.557197 -0.791512,0.730626 -1.583026,1.461254 -2.374537,2.19188 -0.487088,0.426201 -0.974172,0.8524 -1.461257,1.278599 -2.070111,2.496309 -4.140221,4.992618 -6.210332,7.48893 -2.983394,3.04428 -4.569418,4.662672 -8.950184,9.13284 -5.5430098,4.917186 -6.1494074,5.45512 -11.32472342,10.046126 z"
       sodipodi:nodetypes="cccccccccccccccccccccccccccccccccccscccccccccccccccccccccccccsccccccccccccccccscccccccccccccccccccccccsccccccscccccccccccccccccccccccccccccccccccccccccccccccc" />
  </g>
</svg>
